<svg xmlns="http://www.w3.org/2000/svg" viewBox="0 0 441.29 201.36"><defs><style>.cls-1,.cls-2{fill:#56556b;}.cls-10,.cls-11,.cls-12,.cls-13,.cls-14,.cls-2,.cls-3,.cls-5,.cls-6,.cls-7,.cls-8,.cls-9{fill-rule:evenodd;}.cls-3,.cls-4{fill:#ee723c;}.cls-5{fill:#ec8d22;}.cls-6{fill:#e04652;}.cls-7{fill:#d72875;}.cls-8{fill:#ea6e37;}.cls-9{fill:#c9198d;}.cls-10{fill:#9c5b9f;}.cls-11{fill:#6f7bb8;}.cls-12{fill:#f4b11b;}.cls-13{fill:#0098d6;}.cls-14{fill:#c8c8c8;}</style></defs><title>data-science-workshops</title><g id="Text"><rect class="cls-1" x="234.61" y="93.91" width="3.29" height="4"/><path class="cls-2" d="M417.16,354.12h19.73c-.44-5.56-3.67-10.37-9.73-10.37-5.77,0-9.49,5-10,10.37m0,2.76c.5,5.84,4.6,10.53,10.65,10.53a12.21,12.21,0,0,0,9.36-4.28l.12-.13,2.12,1.87-.13.14c-3.25,3.5-6.69,5.27-11.58,5.27-8.11,0-13.75-6.69-13.75-14.61v-.11c0-7.65,5.31-14.61,13.31-14.61,8.29,0,12.88,6.9,12.88,14.67a8.41,8.41,0,0,1-.06,1.11l0,.16Z" transform="translate(-86.17 -241.04)"/><path class="cls-2" d="M401.39,370.27a14.42,14.42,0,0,1-14.29-14.56v-.11a14.55,14.55,0,0,1,14.29-14.67c4.68,0,8,1.86,11.2,5.16l.12.13-2.15,2.22-.13-.14c-2.59-2.63-5.22-4.5-9.09-4.5-6.43,0-11,5.45-11,11.7v.11c0,6.32,4.74,11.8,11.21,11.8,3.73,0,6.73-1.85,9.14-4.55l.12-.14,2.12,1.87-.12.14C409.71,368.27,406.24,370.27,401.39,370.27Z" transform="translate(-86.17 -241.04)"/><path class="cls-2" d="M362.09,346.26a11,11,0,0,1,9.8-5.32c7,0,11.25,4.72,11.25,11.58v17.11h-3V353c0-5.43-3-9.25-8.6-9.25s-9.42,4.24-9.42,9.69v16.19h-3v-28h3Z" transform="translate(-86.17 -241.04)"/><path class="cls-2" d="M332,354.12h19.73c-.45-5.56-3.67-10.37-9.73-10.37C336.24,343.75,332.52,348.72,332,354.12Zm0,2.76c.5,5.84,4.6,10.53,10.65,10.53a12.21,12.21,0,0,0,9.36-4.28l.12-.13,2.12,1.87-.13.14c-3.25,3.5-6.69,5.27-11.58,5.27-8.11,0-13.75-6.69-13.75-14.61v-.11c0-7.65,5.31-14.61,13.31-14.61,8.29,0,12.88,6.9,12.88,14.67a8.41,8.41,0,0,1-.06,1.11l0,.16Z" transform="translate(-86.17 -241.04)"/><rect class="cls-1" x="234.72" y="100.55" width="3.03" height="28.04"/><path class="cls-2" d="M305.24,370.27A14.42,14.42,0,0,1,291,355.71v-.11a14.55,14.55,0,0,1,14.29-14.67c4.68,0,8,1.86,11.2,5.16l.12.13-2.15,2.22-.13-.14c-2.59-2.63-5.22-4.5-9.09-4.5-6.43,0-11,5.45-11,11.7v.11c0,6.32,4.74,11.8,11.21,11.8,3.73,0,6.73-1.85,9.14-4.55l.12-.14,2.12,1.87-.12.14C313.55,368.27,310.09,370.27,305.24,370.27Z" transform="translate(-86.17 -241.04)"/><path class="cls-2" d="M278.34,370.17a19.13,19.13,0,0,1-11.45-4.06l-.14-.11,1.79-2.41.15.12a16,16,0,0,0,9.81,3.6c3.08,0,6.49-1.59,6.49-5.08v-.11c0-3.48-4.53-4.6-7.19-5.36-4.07-1.16-9.63-2.54-9.63-7.77v-.11c0-5.16,4.59-7.83,9.3-7.83a18.89,18.89,0,0,1,9.92,3.07l.15.1-1.61,2.54-.16-.1a15.75,15.75,0,0,0-8.42-2.74c-2.84,0-6.11,1.39-6.11,4.64v.11c0,3.33,5.08,4.49,7.57,5.19,4.09,1.16,9.25,2.77,9.25,7.94v.11C288.07,367.29,283.31,370.17,278.34,370.17Z" transform="translate(-86.17 -241.04)"/><path class="cls-2" d="M404.43,412.25A19.12,19.12,0,0,1,393,408.2l-.14-.11,1.79-2.41.15.12a16.08,16.08,0,0,0,9.81,3.6c3.08,0,6.49-1.59,6.49-5.08v-.11c0-3.48-4.53-4.6-7.19-5.36-4.07-1.16-9.63-2.54-9.63-7.77V391c0-5.16,4.59-7.83,9.3-7.83a18.85,18.85,0,0,1,9.92,3.07l.15.1L412,388.84l-.16-.1a15.71,15.71,0,0,0-8.42-2.74c-2.84,0-6.11,1.39-6.11,4.64v.11c0,3.33,5.08,4.48,7.57,5.19,4.09,1.16,9.25,2.77,9.25,7.93V404C414.16,409.38,409.4,412.25,404.43,412.25Z" transform="translate(-86.17 -241.04)"/><path class="cls-2" d="M376.77,409.44c6.7,0,10.66-5.18,10.66-11.64v-.11c0-6.26-4.15-11.75-10.66-11.75-6.35,0-11.1,5.48-11.1,11.69v.11C365.67,404,370.38,409.44,376.77,409.44Zm-10.94-20c2.69-3.87,6.28-6.42,11.21-6.42,8,0,13.64,6.79,13.64,14.56v.11c0,7.77-5.6,14.67-13.64,14.67-4.84,0-8.53-2.38-11.21-6.2v12.11h-3v-34.6h3Z" transform="translate(-86.17 -241.04)"/><path class="cls-2" d="M344,409.5c6.52,0,11.1-5.35,11.1-11.7v-.11c0-6.35-4.7-11.8-11.21-11.8s-11.1,5.35-11.1,11.7v.11C332.75,404,337.46,409.5,344,409.5Zm-.11,2.86a14.33,14.33,0,0,1-14.34-14.56v-.11A14.48,14.48,0,0,1,344,383a14.33,14.33,0,0,1,14.34,14.56v.11A14.48,14.48,0,0,1,343.85,412.36Z" transform="translate(-86.17 -241.04)"/><path class="cls-2" d="M304.49,388.34a11,11,0,0,1,9.8-5.32c7,0,11.25,4.72,11.25,11.58v17.11h-3V395.09c0-5.43-3-9.25-8.6-9.25s-9.42,4.24-9.42,9.69v16.19h-3v-34.6h3Z" transform="translate(-86.17 -241.04)"/><path class="cls-2" d="M287,412.25a19.13,19.13,0,0,1-11.45-4.06l-.14-.11,1.79-2.41.15.12a16.08,16.08,0,0,0,9.81,3.6c3.08,0,6.49-1.59,6.49-5.08v-.11c0-3.48-4.53-4.6-7.19-5.36-4.07-1.16-9.63-2.54-9.63-7.77V391c0-5.16,4.59-7.83,9.3-7.83A18.85,18.85,0,0,1,296,386.2l.15.1-1.61,2.54-.16-.1A15.71,15.71,0,0,0,286,386c-2.84,0-6.11,1.39-6.11,4.64v.11c0,3.33,5.08,4.48,7.57,5.19,4.09,1.16,9.25,2.77,9.25,7.93V404C296.69,409.38,291.92,412.25,287,412.25Z" transform="translate(-86.17 -241.04)"/><polygon class="cls-2" points="167.62 159.61 183.57 142.64 187.6 142.64 176.24 155.09 187.93 170.67 184.1 170.67 174.14 157.26 167.62 163.84 167.62 170.67 164.59 170.67 164.59 136.07 167.62 136.07 167.62 159.61"/><path class="cls-2" d="M236.33,390.62a13.23,13.23,0,0,1,9.81-7.21v3.27c-6.42,1-9.81,6.91-9.81,13.5v11.52h-3v-28h3Z" transform="translate(-86.17 -241.04)"/><path class="cls-2" d="M213.53,409.5c6.52,0,11.1-5.35,11.1-11.7v-.11c0-6.35-4.7-11.8-11.21-11.8s-11.1,5.35-11.1,11.7v.11C202.32,404,207,409.5,213.53,409.5Zm-.11,2.86a14.33,14.33,0,0,1-14.34-14.56v-.11A14.48,14.48,0,0,1,213.53,383a14.33,14.33,0,0,1,14.34,14.56v.11A14.48,14.48,0,0,1,213.42,412.36Z" transform="translate(-86.17 -241.04)"/><polygon class="cls-2" points="81.91 166.56 90.13 142.53 92.51 142.53 100.73 166.56 108.95 142.64 112.22 142.64 101.95 170.89 99.41 170.89 91.29 147.56 83.12 170.89 80.58 170.89 70.31 142.64 73.69 142.64 81.91 166.56"/><path class="cls-2" d="M250.46,356a36.83,36.83,0,0,0-9.2-1.21c-4,0-8.93,1.45-8.93,6.27v.11c0,4.21,4.15,6.16,7.84,6.16,4.88,0,10.29-2.91,10.29-8.33Zm-.05-2.82v-1c0-5.63-3.51-8.28-8.93-8.28a18.38,18.38,0,0,0-8.6,2.2l-.18.09-1.12-2.68.16-.07a22.51,22.51,0,0,1,9.9-2.4c3.2,0,6.53.76,8.86,3.09a10.78,10.78,0,0,1,2.87,7.94v17.44h-3V365.3A12.83,12.83,0,0,1,240,370.19c-5.25,0-10.87-3-10.87-8.86v-.11c0-6.82,6.47-9.19,12.28-9.19A34.45,34.45,0,0,1,250.41,353.17Z" transform="translate(-86.17 -241.04)"/><path class="cls-2" d="M217.27,344.32h-4v-2.81h4V335h3v6.56h5.79v2.81H220.3V362c0,3.55,1.91,5.19,5.35,5.19h0a.5.5,0,0,1,.21-.08l.21,0v2.84l-.16,0a3.22,3.22,0,0,1-.71.11c-4.84,0-7.94-2.83-7.94-7.78Z" transform="translate(-86.17 -241.04)"/><path class="cls-2" d="M208.22,356a36.82,36.82,0,0,0-9.2-1.21c-4,0-8.93,1.45-8.93,6.27v.11c0,4.21,4.15,6.16,7.84,6.16,4.88,0,10.29-2.91,10.29-8.33Zm-.05-2.82v-1c0-5.64-3.51-8.28-8.93-8.28a18.38,18.38,0,0,0-8.6,2.2l-.18.09-1.12-2.68.16-.07a22.5,22.5,0,0,1,9.9-2.4c3.2,0,6.53.76,8.87,3.09a10.78,10.78,0,0,1,2.87,7.94v17.44h-3V365.3a12.83,12.83,0,0,1-10.39,4.89c-5.25,0-10.87-3-10.87-8.86v-.11c0-6.79,6.43-9.19,12.28-9.19A34.44,34.44,0,0,1,208.17,353.17Z" transform="translate(-86.17 -241.04)"/><path class="cls-2" d="M168.81,367.27c6.35,0,11.1-5.48,11.1-11.7v-.11c0-6.24-4.71-11.7-11.1-11.7-6.7,0-10.66,5.18-10.66,11.64v.11C158.15,361.78,162.3,367.27,168.81,367.27Zm10.94-20.22V334.94h3v34.6h-3v-5.77c-2.69,3.87-6.28,6.42-11.21,6.42-8,0-13.64-6.79-13.64-14.56v-.11c0-7.77,5.6-14.67,13.64-14.67C173.38,340.86,177.08,343.24,179.75,347.06Z" transform="translate(-86.17 -241.04)"/><path class="cls-3" d="M488.29,388.17c2.18-3.28,4.84-5.14,9-5.14a10.07,10.07,0,0,1,9.35,5.76,11.07,11.07,0,0,1,10-5.76c7,0,10.82,5,10.82,11.74v16.95h-3V395.09c0-5.15-2.43-9.25-8-9.25-5.39,0-8.55,4.44-8.55,9.58v16.3h-3V394.93c0-5-2.54-9.09-7.9-9.09s-8.66,4.76-8.66,9.74v16.13h-3v-28h3Z" transform="translate(-86.17 -241.04)"/><path class="cls-3" d="M466.41,409.5c6.52,0,11.1-5.35,11.1-11.7v-.11c0-6.35-4.7-11.8-11.21-11.8s-11.1,5.35-11.1,11.7v.11C455.21,404,459.91,409.5,466.41,409.5Zm-.11,2.86A14.33,14.33,0,0,1,452,397.8v-.11A14.48,14.48,0,0,1,466.41,383a14.33,14.33,0,0,1,14.34,14.56v.11A14.48,14.48,0,0,1,466.3,412.36Z" transform="translate(-86.17 -241.04)"/><path class="cls-3" d="M439.4,412.36a14.42,14.42,0,0,1-14.29-14.56v-.11A14.55,14.55,0,0,1,439.4,383c4.68,0,8,1.85,11.2,5.16l.12.13-2.15,2.22-.13-.14c-2.58-2.64-5.22-4.5-9.09-4.5-6.43,0-11,5.45-11,11.7v.11c0,6.32,4.74,11.8,11.21,11.8,3.73,0,6.73-1.86,9.14-4.55l.12-.14,2.12,1.87-.12.14C447.71,410.35,444.25,412.36,439.4,412.36Z" transform="translate(-86.17 -241.04)"/><rect class="cls-4" x="332.33" y="166.21" width="3.79" height="4.46"/></g><g id="Image_Logo" data-name="Image Logo"><path class="cls-5" d="M160.52,307.65c26.41-4.74,28.29-33.54,7.89-47.92-1.89-1.33-6-3.51-4-6.32,1.64-2.32,4-1.9,6.3-.71,27.93,14.51,25.29,58.69-10.54,62.81-18.75,2.15-45.56-9.6-44.46-31.8,1.17-23.74,35.22-21.54,39.94-5.23,1,3.51.37,5.21-2,6-2.09.67-4.15.42-5.43-3.23-3.58-10.21-24.64-11.54-24.46,3.32.21,16.87,22.31,25.71,36.75,23.11" transform="translate(-86.17 -241.04)"/><path class="cls-6" d="M128.68,334.48c-8.68-1.88-20.41-8.58-26.25-15.54-1.47-1.75-3.46-4.75-1-6.66,2.24-1.73,3.94-.41,5.08.85A53.63,53.63,0,0,0,129,328c2,.67,5.88,1.76,4.91,4.6-.79,2.32-3.59,2.2-5.18,1.85" transform="translate(-86.17 -241.04)"/><path class="cls-7" d="M119.15,341.92c-5-1.46-12.85-4.81-16.46-8.48-1.48-1.51-2.26-2.62-.94-4.76.74-1.19,2.37-1.54,4-.38a62.9,62.9,0,0,0,15.83,8.1c2.47.92,2.88,2.63,2.34,4-.69,1.77-2.44,2.17-4.73,1.5" transform="translate(-86.17 -241.04)"/><path class="cls-8" d="M155.25,245.34c4.71,2.47,2,8.23-3.56,5.95-15.53-6.42-39-3.91-45.13,13.71-9.21,26.29,13.92,50.06,38.44,55.41,2.43.53,5.17.69,4.87,3.92-.24,2.58-1.92,3.19-4.63,2.94-30.1-2.77-58.39-36.57-44.93-66.67,9-20.06,36.74-23.79,54.94-15.25" transform="translate(-86.17 -241.04)"/><path class="cls-9" d="M114.79,350.93c-2.33-.63-3.72-2.06-3.12-4.11.72-2.47,3-2.37,4.55-1.9a43.82,43.82,0,0,0,12,1.39c2.24-.1,4.07,0,4.37,2.43.33,2.61-1.77,3.25-3.55,3.46a41.59,41.59,0,0,1-14.23-1.28" transform="translate(-86.17 -241.04)"/><path class="cls-10" d="M121.67,361.21c-3.09.51-8.92-.34-11.66-2a3,3,0,0,1-1.27-3.4,2.41,2.41,0,0,1,3.32-1.5,35.28,35.28,0,0,0,9.75,1.76c1.57,0,2.29,1.55,2.09,2.85a2.77,2.77,0,0,1-2.24,2.32" transform="translate(-86.17 -241.04)"/><path class="cls-11" d="M123.6,370.1c-1.63,0-2.75-.44-3.23-2.19a2.44,2.44,0,0,1,2.15-3.14,54.82,54.82,0,0,0,5.83-1.06,2.7,2.7,0,0,1,3.58,1.92c.41,1.55-.27,2.8-2.17,3.44a21,21,0,0,1-6.16,1" transform="translate(-86.17 -241.04)"/><path class="cls-12" d="M167.92,283.84c-1.31-17.4-29.79-29.76-47-19.62-2.48,1.46-3.71.78-4.6-.69-1-1.72-.57-3.34,2.5-5.33,18.86-12.27,53.8,3.36,56.39,23.84,3.65,28.82-47.64,23-44.52,1.7.43-2.95,2-4.42,4.88-3.95,2,.34,3.2,2.44,2.43,5.31-2.69,10,31.06,17.59,29.92-1.25" transform="translate(-86.17 -241.04)"/><path class="cls-13" d="M91.82,425.54c-6.28-1.2-7.21-9.38-3.38-13.6,6.26-6.91,13.13-13.26,19.25-20.3a6.1,6.1,0,0,0,.68-2L110.59,378a5.71,5.71,0,0,0-.77-4.2,2.51,2.51,0,0,1,2.64-3.92c4.75.91,6.14,4.28,5.28,8.75l-2.28,12a10.57,10.57,0,0,1-2.39,5.55l-18.83,19.1c-1.51,1.53-1,3.46,1.14,3.87l36.2,6.94c3.2.61,3.1-1.19,2.09-3.57l-10.22-24a10.36,10.36,0,0,1-.42-6.39l2.27-12c.88-4.61,2.56-7.26,7.69-6.28,2.43.46,3.19,3.13,1.17,4.65a5.57,5.57,0,0,0-2.14,3.65l-2.2,11.59a3.77,3.77,0,0,0,0,2.15l10.69,25.92c2.61,6.34-.82,12.89-8.22,11.47Z" transform="translate(-86.17 -241.04)"/><path class="cls-14" d="M113.62,436.75c14.68,0,26.57,1.27,26.57,2.83s-11.9,2.83-26.57,2.83S87,441.13,87,439.57s11.9-2.83,26.57-2.83" transform="translate(-86.17 -241.04)"/></g></svg>