<svg version="1" xmlns="http://www.w3.org/2000/svg" width="1224" height="1224" viewBox="0 0 918.000000 918.000000"><path d="M160 23v23h599V0H160v23zm25.5-9.6c12.1 5.1 8.6 23.6-4.5 23.8-13.4.2-17.8-17.6-5.9-23.5 4.2-2 6-2.1 10.4-.3zm12.3-.2c1.8 1.8 1.5 3.6-.7 4.8-2.8 1.4-5.5-1.3-4.1-4.1 1.2-2.2 3-2.5 4.8-.7zm115.1.7c1.3 2.4-.9 5.7-3.3 4.8-2.3-.9-3.1-3.4-1.6-5.2 1.7-2 3.7-1.9 4.9.4zm-95.1.7c2.9 2 3 7.6.2 10.4l-2.1 2.1 2.6 4.3c3.1 5.2 3.1 5.6.3 5.6-1.7 0-3-1.3-5.1-5-2.2-3.8-3.4-5-5.2-5-2.1 0-2.4.5-2.7 4.7-.3 4.1-.6 4.8-2.5 5.1-2.3.3-2.3.2-2.3-11.7V13h7.3c4.9 0 8 .5 9.5 1.6zm23.2.4c0 1.8-.7 2-6.6 2h-6.5l.3 2.7c.3 2.7.6 2.8 6.1 3.1 4.9.3 5.7.6 5.7 2.2 0 1.8-.7 2-6 2-5.7 0-6 .1-6 2.5 0 2.3.4 2.4 6.3 2.7 5.6.3 6.2.5 6.5 2.5.3 2.2.1 2.3-8.2 2.3H224V13h8.5c7.8 0 8.5.2 8.5 2zm8 10.1c0 11.9 0 12-2.2 11.7-2.2-.3-2.3-.7-2.6-12.1l-.3-11.7h5.1v12.1zm8-2.6V32h5.5c5.2 0 5.5.1 5.5 2.5s-.2 2.5-7.5 2.5H253V25c0-11.3.1-12 2-12s2 .7 2 9.5zm19 0V32h5.5c5.2 0 5.5.1 5.5 2.5 0 2.5-.1 2.5-8 2.5h-8V13h2.5c2.5 0 2.5 0 2.5 9.5zm14.6-5.5c1.5 2.2 2.8 4 3 4 .2 0 1.6-1.8 3-4 1.9-2.8 3.4-4 5-4 1.3 0 2.4.3 2.4.6s-1.8 3.1-4 6.3c-3.5 5-4 6.4-4 11.4 0 5.4-.1 5.7-2.5 5.7s-2.5-.3-2.5-5.8c0-5.2-.4-6.5-4-11.6-2.2-3.1-4-5.9-4-6.1 0-.3 1.1-.5 2.5-.5 1.8 0 3.2 1.1 5.1 4z"/><path d="M175.2 19.3c-1.4 1.5-2.2 3.6-2.2 5.9 0 8.4 11.8 10.6 15 2.8 3.3-8.1-6.9-15-12.8-8.7zM308.4 14.5c-.7 1.7.3 3.5 1.9 3.4.9 0 .9-.2 0-.6-.7-.2-1.3-1.1-1.3-1.8s.6-1.6 1.3-1.8c.9-.4.9-.6-.1-.6-.7-.1-1.5.6-1.8 1.4zM206 20c0 2.7.3 3 3.3 3 4.1 0 7.3-2.1 6.4-4.4-.5-1.1-1.9-1.6-5.2-1.6-4.3 0-4.5.1-4.5 3zM360.7 68.1c-1 .6-2.5.8-3.3.5-.8-.3-1.4-.2-1.4.2s-1.2.8-2.8.8c-1.5.1-5.2 1.3-8.2 2.7-3.6 1.6-6.7 2.3-9 2.1-3.2-.4-3.3-.3-.9.6 2 .8 2.5 1.7 2.5 4.5 0 4.3-1.7 4.1-2.8-.4-.5-1.7-1.3-2.9-1.8-2.6-.6.4-1 .1-1-.4 0-1.3-5.7-1.5-6.4-.2-.4.5.2.7 1.2.4 1.1-.2 2.5.2 3.3 1.1 2.6 2.9 3.5 4.1 3.7 5.1.7 3.3 1.6 4.6 3.8 5.1 2.3.6 2.3.7.7 2-1.6 1.2-1.6 1.3.7.8 2.1-.5 2.2-.4 1 .6-1.3 1-1.1 1.1.7.7 1.2-.3 2.4 0 2.6.7.2.6 1.1-.4 2.1-2.2 1.5-2.9 1.4-3.6-.4-3.4-.3 0-.7-.8-.7-1.9-.1-1.1.2-1.7.7-1.4.5.3.7-.3.5-1.4-.4-2.1 2.8-6.5 3.9-5.4.3.3.6.2.6-.3s1.2-1.1 2.7-1.2c1.5-.1 2.9-.5 3.2-1 .7-.8 9.1-1 9.1-.1 0 .3.6.6 1.3.6.6.1 3.5.4 6.2.9 2.8.4 7.5.7 10.7.6 3.8-.1 6 .3 6.8 1.3.7.8 2 1.5 3 1.5 2.4 0 7.1 2.5 6.3 3.3-.3.4.4.7 1.7.7 2.3 0 2.3 0 .4 1.5-1.8 1.4-1.8 1.4 0 1.5 1.3 0 1.7.5 1.3 1.9-.3 1.2.1 2.2.9 2.5.8.3 1.4 0 1.4-.7s1.1.6 2.4 2.8c2.2 3.6 2.3 4.1.8 4.7-1.4.5-1.3.7.5.7 1.2.1 2.5.6 2.9 1.3.5.7.2.8-.7.3-.8-.5-.3.4 1 1.8 1.6 1.7 2.7 2.3 3.1 1.6.6-.9 1.5.6 2.4 4.1 0 .3 1.1 1.6 2.4 3 1.2 1.3 2.1 2.9 2.1 3.4-.1.6-.1 1.8 0 2.6.1 1.3.2 1.3 1.1 0 .8-1.3 1-1.2 1 .4 0 1 .5 1.6 1.3 1.3.7-.3 1.3.5 1.3 1.9.2 2.7-.5 3-2.6 1.1-1.2-1-1.2-.9-.1.5.7 1 2 1.8 2.8 1.8.8 0 1.1.5.8 1.1-.4.6-1.4.8-2.2.5-.8-.3-1.2-.2-.8.3.3.5 0 1.1-.7 1.3-.8.3-.6.7.5 1.1.9.3 1.7.2 1.7-.3s.7-.7 1.5-.4c.8.4 1.5.1 1.5-.7 0-.7.3-.9.6-.6.4.4.1 1.4-.7 2.4-1.2 1.5-1.2 1.6.6 1 2-.7 2-.7.1.8-1.1.8-1.6 1.5-1 1.5.5 0 .3.4-.5.9s-1.5 2.1-1.7 3.5c-.1 1.5.1 2.4.6 2.1.5-.3 1.1-.1 1.5.5.3.5.2 1-.4 1-.6 0-2.8 1.8-5 4s-4.2 4-4.6 4c-.4 0-1.8.9-3.1 1.9-1.5 1.2-3.3 1.7-4.7 1.3-2-.5-2.1-.4-.8 1.2s1.3 1.8 0 1.6c-2.6-.4-4 0-3.4 1 .4.6-.3.8-1.7.6-1.3-.3-2.3-.5-2.3-.6 0-.6-29.4-.6-31.1.1-1.3.4-2.6.3-3.3-.4-.8-.8-1.1-.7-1.1.5 0 1.7-5 2-6.2.3-.5-.6-.8-.2-.8.8 0 1.7-.1 1.7-1.6.3-2.3-2.4-5.5-1.9-9.3 1.4-1.8 1.5-4 2.6-4.7 2.3-.9-.3-1.4.2-1.4 1.3 0 1.5-.2 1.6-.9.5-.5-.8-.7-2.1-.4-2.9.5-1.2.3-1.2-1.5-.1-1.1.7-1.8 1.8-1.6 2.4.3.6-.7 1.7-2.1 2.3-1.4.6-2.5 1.6-2.5 2.2 0 .6-.4.9-.8.6-.5-.3-1.7.5-2.7 1.6-1.7 2-1.7 2.4-.2 4.9.8 1.6 1.3 3.7 1 4.7-.2 1.1 0 2.9.6 4 .7 1.3.7 2.3.1 2.7-.5.3-.7 1.2-.4 1.9.3.8 0 1.7-.7 2.1-.8.6-.4 1.2 1.2 2.1 1.3.7 1.8 1.3 1.2 1.4-1.5 0-1.8 3-.3 3 1.8 0 1 2.2-1 2.7-1.1.3-2 1-2 1.5s.4.6 1 .3.7.1.4.9c-.4.9-.1 1.6.6 1.6s1 .7.7 1.5c-.4.8-.2 1.7.3 2 .6.4 1 1.4 1 2.3-.1 1.1-.7.6-1.7-1.3-1-1.7-1.6-3.3-1.5-3.7.1-.3-.5-.9-1.3-1.2-1-.3-1.2 0-.8 1.1.4 1.1.2 1.4-.5.9-.7-.4-1.2-.3-1.2.3 0 .5.5 1.3 1 1.6.6.4.8 1 .5 1.4-.2.5.2 1.7 1 2.7.8 1 1.4 2.3 1.4 2.9 0 .5-.5.3-1.2-.6-1-1.4-1.6-1.5-2.9-.5-1.8 1.3-.8 4.3 1.1 3.2.6-.4 1.1-.3 1.1.2 0 1.1-3.6 2.3-4.4 1.4-.3-.3-.6-1.4-.6-2.4s-.4-1.8-.8-1.8-.8.9-.8 2 .4 2 .9 2c.4 0 .6.4.2.9-.3.5-.1 1.2.5 1.6 1.5.9.1 2.7-1.6 2.1-2.6-1-1.4.9 2 3.1 2.5 1.6 3.3 2.7 2.9 4.2-.5 1.9-.6 1.8-2.8-.7l-2.2-2.6-.8 2.3c-.5 1.8 0 3 2.6 5.7 1.8 1.9 3 3.4 2.6 3.4-.4 0-.3.9.3 1.9.7 1.3.7 2.2 0 2.6-.5.3-1 1.2-1 2 0 2.1 5.1 7.7 6.6 7.1.7-.3 1.6 0 2 .6.5.7.3.8-.5.3-.9-.5-.9-.1.1 1.4.7 1.2 1.6 2.1 2.1 2.1.4 0 .6.4.3.8-.2.4 0 1.4.5 2.2.8 1.3 1 1.3 1.9 0 .8-1.2 1-1 .8 1-.2 1.5.2 2.4.9 2.3 1.8-.4 5.6 4.8 4.4 6-1.2 1.2.6 5 1.9 4.2.6-.4.7.1.3 1.1-.5 1.3-.3 1.5.7.9.8-.5 1.1-.4.7.2-1.1 1.8 2.3 5.4 4.4 4.8 2.1-.7 2.5.5.7 2.3-.9.9-.7 1.3.5 1.8.9.3 1.7.9 1.7 1.3 0 1.2 8.3 9.6 9.4 9.6.5 0 1 .9 1.2 2 .2 1.1 1.6 3.1 3.1 4.4 4.4 3.7 14.2 12.8 20.9 19.3 3.3 3.3 6.7 6.1 7.5 6.2 2.8.6 4.9 1.8 4.4 2.6-.3.5 1 2 2.7 3.5 5.8 4.8 13.8 12.4 13.9 13.2.2 1.4 6.3 7.8 7.2 7.5.5-.1.6.2.2.8-.3.5-.1 1 .6 1s1 .3.6.6c-1 1 4.4 7.5 7.1 8.5 1.6.6 2.2 1.4 1.8 2.7-.8 2.4 3.8 8.8 10.9 15.2 6.1 5.5 12.5 12 12.5 12.7 0 .6-10.4 5-14.5 6-8 2-20.8 7.2-23 9.3-1.3 1.2-2.5 3-2.8 4.1-.5 1.7.1 1.9 4.5 1.9 3.6 0 5.5-.5 6.5-1.8 1.4-1.6 1.4-1.6.9 0-.4 1.4.1 1.8 2.3 1.8 2.9 0 3.4-1.1 1.7-3.9-.6-.9.1-.7 1.7.5 1.5 1 2.7 2.3 2.7 2.7 0 1.2 4-.2 7.2-2.4 1.4-1.1 3.4-1.9 4.3-1.9.9 0 2.9-1.3 4.3-2.8 3.2-3.4 5.5-4.7 10-5.5 2.2-.5 3.2-.3 3.2.6 0 1.7-1.7 4.2-3 4.3-.5.1-1.5.2-2.1.3-.6 0-.8 1-.4 2.1.5 1.5 0 2.1-1.9 2.6-2.7.6-3.5 2.9-1.3 3.7.6.3-66.6.6-149.5.6L160 414v379h599V414H642.3l-.6-4.2c-.3-2.3-1.3-4.5-2.1-5-.9-.5-1.6-1.8-1.6-2.8 0-2.5-1.5-2.6-3-.3-.8 1.5-.9 1.3-.4-1 .6-2.6-.4-3.3-3.8-2.8-.4 0-.2-1.1.4-2.4.8-1.9 1.4-2.2 2-1.3.4.7.8.9.8.4 0-.6.9 0 2 1.2 2.6 2.7 3.4 2.8 2.7.3-.3-1.2.1-2.2 1-2.5.8-.3 1.1-.1.8.4-.3.6-.1 1 .4 1 .6 0 6.1 3.1 12.3 7 6.2 3.8 11.6 7 12 7 1.3 0 .9-1.8-1.1-6.1-1.1-2.1-1.4-3.6-.8-3.3.7.4-.3-.9-2-2.7-1.8-1.9-3.3-3.8-3.3-4.1 0-.3 2.6-.4 5.9-.1 3.3.3 6.1.1 6.4-.4.4-.6-.6-3.4-2.1-6.3-3.1-6.2-13.1-15.5-24.7-23.3-6.3-4.2-8.1-6-9.3-9.2-.8-2.2-3-6.3-4.7-9-1.8-2.8-4.2-7-5.5-9.5-6.3-12.7-6.3-12.6-9.3-12.1-.5.1-.6-.3-.2-.9.3-.6 1.1-.8 1.6-.5 1.6 1 1.1-.3-4.1-10.3-2.7-5.3-6.3-12.6-8-16.2-4.1-8.7-6.4-12.6-9.8-16.9-1.6-2-3.4-4.7-4.2-6.1-.7-1.4-3.7-5-6.6-8-3-3-7.8-8-10.8-11-2.9-3-6.9-6.9-8.8-8.7-2-1.7-3.3-3.5-3-3.8.4-.4.3-.6-.3-.5-1.8.4-3 0-5.5-2-2.1-1.7-2.2-1.9-.5-1.5 1.1.3.7-.1-.9-.8-1.5-.8-5.4-3.7-8.5-6.5-11.1-10-16.5-14-18-13.4-.9.3-1.2.1-.7-.6.5-.8 0-1.2-1.2-1.2-2.1 0-6.8-3.7-6.4-5.1.1-.5-1.2-1.8-3-2.9-2.4-1.4-3.4-1.6-4-.7-.5.9-1 .9-2-.2-1.1-1.2-1-1.2.2-.6 1.3.8 1.3.7.1-.8-1.5-1.9-2.6-2.3-1.5-.6.4.7.1 1-.7.7-.8-.3-1.3-1.1-1.1-1.8.2-.8-.3-1-1.3-.7-.9.4-1.5.1-1.5-.8 0-1.4-1.1-1.9-3.7-1.6-.7.1-1.6-.6-2.2-1.6-.5-1-3.1-2.9-5.7-4.3-2.7-1.4-5.5-3.1-6.2-3.8-.7-.6-2-1.2-2.7-1.2-.8 0-2.6-.5-4.2-1.2-1.5-.6-3.2-1.2-3.8-1.2-1.8-.2-6-2.9-7.3-4.8-.7-1-2.1-1.8-3-1.8-.9 0-2.6-.7-3.6-1.5-2.3-1.7-3.6-1.9-3.6-.5 0 .5.7 1 1.5 1s1.5.4 1.5 1c0 .5-.9 1-2 1s-2-.4-2-.9-1-.7-2.2-.3c-1.8.4-2 .2-1.4-1.4.4-1 .8-2.3.9-2.8.3-1.2-8.4-3.8-10.3-3.1-.8.4-1.1.3-.7-.1 1-1-8.3-4.5-9.6-3.7-.6.3-.7.1-.3-.5.4-.6-.7-1.3-2.6-1.7-6.4-1.4-7.8-2.3-7-4.4.4-1 2.1-3.5 3.8-5.3 1.7-1.9 3.7-5.1 4.3-7.1.7-2 1.9-3.7 2.7-3.7.8 0 1.4-1 1.5-2.3v-2.2l.9 2.3c.5 1.2.7 3 .4 4-.5 1.6-.5 1.6.6-.1 1.7-2.6 2.7-2.1 3.8 2 .9 3.8.9 3.8 2 1.3l1.1-2.5v2.6c.1 3.6 2.6 5.7 3.9 3.3.8-1.5 1.1-1.3 1.7 1.4.3 1.8 1.1 3.2 1.6 3.2s.9.8 1 1.7c.1 1.2.4.9.9-.7.6-2.2.8-2.3 1.5-.8 1.1 2.8 2.5 1 1.8-2.3-.4-2.1-.1-3.4.8-4 1.2-.8 1.2-1.1-.1-1.9-1-.6-1.1-1-.3-1 1.5 0 1.1-4.8-.6-9.3-.8-2-.8-3.3 0-4.5.8-1.3.7-2.9-.4-6.2-.8-2.5-1.1-4.7-.6-4.8 1.2-.5 1.1-3.6-.2-4.9-.6-.6-1.3-2.6-1.5-4.4-.3-1.9-1.5-4.3-2.8-5.5-1.2-1.1-2.2-2.8-2-3.7.1-.9-.3-1.7-.9-1.7-.5 0-.7-.3-.4-.6.9-.9-2.8-6.1-7.3-10.4-2-1.9-3.5-4-3.3-4.7.4-1-1.2-2.6-2.7-2.8-2.7-.4-4.8-1.8-4.3-3.1.3-.8-.1-1.4-1-1.4s-2.2-.6-2.9-1.3c-1.3-1.3-3.6-2.4-5.2-2.5-.5 0-1.2-.4-1.5-.9-1.4-1.9-5.4-3.3-12.9-4.5-4.4-.7-7.9-1.5-7.6-1.9.2-.4-.6-.7-1.9-.8-5-.1-10.6-.9-11.7-1.6-.7-.4-1.5-.3-1.9.2-.5.9-4.5 1-6.1.2-1.3-.6-8.8-.3-8.3.3.7 1.3-1.2.9-2.5-.4-1-1-1.7-1-3.3 0-1.2.8-1.8.9-1.4.3.8-1.3.5-1.3-1.8 0zm58.5 16.8c.6 1.1 1.8 1.7 2.6 1.3 1-.3 1.3-.1.8.6-.3.6-1.5 1-2.6.9-1-.1-1.6-.5-1.3-1.1.3-.5-.2-1.5-1.2-2.3-1.1-.7-1.4-1.3-.7-1.3s1.7.9 2.4 1.9zm8.1 1.9c-.7.4-.9 1.3-.4 2.1.5.7 1.4 1 2 .6 1.4-.8 4.3 1.3 3.5 2.6-.3.5 2 3.6 5.1 6.9 8.2 8.5 9.1 9.9 7.6 12.2-.9 1.5-.9 2.3 0 3.4.6.7 1.5 1.2 1.9.9.4-.2 1.2 1.1 1.7 3 .8 2.6.8 3.5-.2 3.9-1.3.5-2.3-.4-4-3.4-.8-1.3-.7-1.3.8-.1s1.7 1.2 1.1-.3c-.3-.9-1.5-1.6-2.6-1.6-1.3 0-1.8-.5-1.5-1.4.3-.8.3-1.6-.1-1.8-1.4-.7-6.1-6.3-6.4-7.8-.2-.8-1.1-2.1-2.1-2.8-2-1.6-1.4-3.2 1.3-3.2 1.5 0 1.4-.4-1-3-2.7-2.9-4.8-4.1-3.5-2 .3.6-.5.6-2.2 0-5.4-1.7-5.8-2-2-1.6 2 .2 3.9 0 4.2-.4.6-1-3.1-2.4-4.3-1.6-.5.3-1.8-.1-2.8-.9-1.7-1.3-1.8-1.4-.1-1.5.9 0 1.7-.7 1.7-1.5s.8-1.5 1.8-1.5c1.1 0 1.3.3.5.8zm5.7 12.3c0 .4-1.3.3-3-.2-1.6-.6-2.8-1.5-2.5-2 .6-.9 5.5 1 5.5 2.2zm6 13.9c-1 .6-1.1 1-.2 1 .6 0 1.2.5 1.2 1.1 0 .8-.5.8-1.5-.1-1.6-1.3-1.1-3 .8-3 .7 0 .6.4-.3 1zm5 10.1c1.4 1.1 1.8 1.8 1 1.5-.8-.3-2.3-.9-3.2-1.2-1-.4-1.8-1-1.8-1.5 0-1.4 1.3-1 4 1.2zm-61 38.3c0 .2-.7.7-1.6 1-.8.3-1.2.2-.9-.4.6-1 2.5-1.4 2.5-.6zm11 1.4c0 .4-.9 1.4-1.9 2.1-1.1.8-1.7 2.1-1.4 3 .5 1.2.3 1.3-.6.5-1-.9-.9-1.7.4-3.8 1.7-2.5 3.5-3.5 3.5-1.8zm26.7-.2c-.3.3-1.2.4-1.9.1-.8-.3-.5-.6.6-.6 1.1-.1 1.7.2 1.3.5zm-82.7 1.8c0 .2-.7.6-1.5 1-.8.3-1.5.1-1.5-.4 0-.6.7-1 1.5-1s1.5.2 1.5.4zm84 0c0 .3-.4.8-1 1.1-.5.3-1 .1-1-.4 0-.6.5-1.1 1-1.1.6 0 1 .2 1 .4zm-57.5 1.6c-.3.5-1.2 1-1.8 1-.7 0-.6-.4.3-1 1.9-1.2 2.3-1.2 1.5 0zm8.8-.3c-.7.2-1.3 1-1.3 1.7 0 .6-.8 1.2-1.9 1.2-2.2 0-1.7-2.3.7-2.9 2.4-.6 4-.6 2.5 0zm-16.3.7c0 .2-.8 1-1.7 1.7-1.6 1.3-1.7 1.2-.4-.4 1.3-1.6 2.1-2.1 2.1-1.3zm40 1.2c0 .2-1.2.4-2.7.4-2.1 0-2.4-.3-1.4-.9 1.3-.8 4.1-.5 4.1.5zm-8.3 2c-.3.3-1.2.4-1.9.1-.8-.3-.5-.6.6-.6 1.1-.1 1.7.2 1.3.5zm-22.2 2.3c-.3.6-1.1 1.1-1.6 1.1s-.4-.6.3-1.4c1.4-1.6 2.4-1.3 1.3.3zm37.7-.7c.5 1.5-4.5 6.8-6.3 6.7-1 0-1.1-.2-.1-.6 2.1-.8 1.3-2.5-.9-1.8-1.9.6-2 .5-.8-.8.9-.9 1.8-1.2 2.5-.6s1.6.4 2.4-.6c.9-1.1.9-1.5.1-1.5-.7 0-.9-.5-.6-1 .9-1.4 3.2-1.3 3.7.2zm-43.2.2c0 .2-.8 1-1.7 1.7-1.6 1.3-1.7 1.2-.4-.4 1.3-1.6 2.1-2.1 2.1-1.3zm28.4 3c-.3.9-1.2 1.7-2 1.7-2.3.2-2.8.4-4.2 1.3-1.7 1-2.3.4-1.3-1.2.4-.7 1.8-1.5 3.1-1.7 1.3-.2 2.8-.9 3.4-1.5 1.3-1.3 1.8-.7 1 1.4zm28.2.6c0 1.2-.4 1.6-.9 1.1s-.6-1.4-.3-2c1-1.5 1.2-1.4 1.2.9zm-45.6-.2c0 .5-.7.9-1.5.9s-1.2-.4-.9-.9c.3-.4.9-.8 1.5-.8.5 0 .9.4.9.8zm41.7 1.7c0 .8-.4 1.2-.9.9-.5-.3-.6-1-.3-1.5.9-1.3 1.2-1.1 1.2.6zm23.7 1.7c-.4.6.2 1.8 1.2 2.6 1.8 1.4 1.8 1.4-.6.8-1.4-.3-3.1-.6-3.7-.6-.7 0-1.3-.7-1.3-1.6 0-.8.5-1.2 1-.9.6.3 1 .1 1-.4 0-.6.7-1.1 1.6-1.1.9 0 1.2.5.8 1.2zm-81.4 2.3c-.7.8-1.7 1.5-2.2 1.5-1.1 0 1.4-2.9 2.6-3 .5 0 .3.7-.4 1.5zm13-.1c0 .2-.8 1-1.7 1.7-1.6 1.3-1.7 1.2-.4-.4 1.3-1.6 2.1-2.1 2.1-1.3zm53 .7c0 1.6-2.1 2-3.5.6-1.2-1.3-1.1-1.5 1.1-1.5 1.3 0 2.4.4 2.4.9zm-60.4 1.2c.4.4 0 .7-.9.7s-1.8-.4-2.1-.9c-.7-1 2-.9 3 .2zm42.2-.1c1.5 1.5 1.6 3.2.2 2.3-.5-.3-1-.1-1 .4 0 .6-.8.3-1.8-.7-1.2-1.1-1.4-2-.8-2.4 1.5-1 2-1 3.4.4zm-25.8 4.1c-1.9 1.7-3 2.5-2.5 1.7 1.2-2 4.9-5.7 5.4-5.3.3.2-1.1 1.8-2.9 3.6zm6.5-3.3c-.3.5-1.1 1-1.6 1-.6 0-.7-.5-.4-1 .3-.6 1.1-1 1.6-1 .6 0 .7.4.4 1zm50.9.6c.9.3 1.3 1.1 1 1.6-.4.6 0 1.4.7 1.9 1 .6.7.9-1.2.9-1.8 0-3.2-.9-4.3-2.5-1.6-2.4-1.5-2.5.3-2.5 1.1 0 2.6.3 3.5.6zm16.4 1.2c.2.7-.6 1.2-2 1.1-1.2 0-1.7-.3-1-.6.6-.2.9-.9.6-1.5-.4-.6-.1-.9.6-.6.8.2 1.6 1 1.8 1.6zm-55.8 2.1c0 1.4-.2 1.4-1 .1-.5-.8-1-1-1-.5 0 .6-.8 1.5-1.8 2.1-1.5 1-1.8.8-1.8-1 0-1.1.4-2.4.9-2.7 1.6-1.1 4.7.2 4.7 2zm23-1.4c1.8 1 2 1.4.8 1.5-.9 0-2-.5-2.3-1-.3-.6-1.1-1-1.7-1-.6 0-.3.9.7 2 1.8 1.9 1.7 2-.4 2-1.2 0-1.9-.4-1.6-1 .3-.6.2-1-.4-1-.6 0-.8-.7-.5-1.5.7-1.9 2.2-1.9 5.4 0zm-37 .4c0 .5-.7 1.2-1.6 1.5-1.4.5-1.5.4-.4-.9 1.4-1.7 2-1.9 2-.6zm71.5 2.1c.3.6-.1.7-.9.4-1.8-.7-2.1-1.4-.7-1.4.6 0 1.3.4 1.6 1zm22.6 1c.5 0 .9.4.9 1 0 1.6-2.6 1.2-4.1-.7-1.2-1.5-1.2-1.6.4-1 1 .4 2.3.7 2.8.7zM369 190.5c-.7.8-2 1.5-2.9 1.5-1.1 0-.8-.5.9-1.4 3.3-1.9 3.5-1.9 2-.1zm10.5-.5c.3.5.2 1-.4 1-.5 0-1.3-.5-1.6-1-.3-.6-.2-1 .4-1 .5 0 1.3.4 1.6 1zm45.5 0c.8.5 1.2 1.1 1 1.4-.3.2-1.4-.2-2.4-1-2.2-1.5-1-1.9 1.4-.4zm60.5.8c-.3.3-1.1 0-1.8-.7-.9-1-.8-1.1.6-.5 1 .3 1.5.9 1.2 1.2zm-76.7 1.2c-.7 1.1-1.7 2-2.2 2-.5 0-.1-.9.9-2s2-2 2.2-2c.2 0-.2.9-.9 2zm42.1-1.1c.9.6 1 1 .2 1.6-1.6.9-4.4-.2-3.6-1.5.8-1.2 1.6-1.2 3.4-.1zm-58.9 1.7c0 .2-.7.4-1.5.4s-1.5-.4-1.5-1c0-.5.7-.7 1.5-.4.8.4 1.5.8 1.5 1zm32.7.7c.1.1-.7 1.3-1.8 2.6-1.7 2.1-2.2 2.2-5 1.1-2.2-1-2.7-1.5-1.7-2.1.7-.5.9-.9.3-.9-.5 0-.4-.4.4-.9 1.1-.7 7-.5 7.8.2zm14.3-.6c-.8.3-1.8 1-2.1 1.6-.4.6-1.5.7-2.5.2-1.7-.7-1.6-.9.6-1.5 3.1-1 6.4-1.2 4-.3zm-34 .6c0 .2-1.2 1.4-2.6 2.8l-2.7 2.4 1.8-2.8c1.4-2.2 3.5-3.6 3.5-2.4zm-48.9 2.4c1.3 1.6 1.2 1.7-.3.4-1.2-.9-1.8-1-1.8-.2 0 .6-.8 1.1-1.7 1.1-1.6-.1-1.6-.2.1-1.5 2.4-1.8 2.1-1.8 3.7.2zm125.5-.6c.3.6.1 1.6-.6 2.2-1 .9-1.1.9-.6-.1.4-.6.2-1.2-.3-1.2-.6 0-1.1-.5-1.1-1 0-1.3 1.7-1.3 2.6.1zm-117.1.9c-.3.5-1 1-1.6 1-.5 0-.9-.5-.9-1 0-.6.7-1 1.6-1 .8 0 1.2.4.9 1zm86.4 2.5c.2 1.3-.1 1.6-1.2 1.2-1.1-.4-1.4-.1-1 .9.3.7.1 1.4-.5 1.4s-.9-.8-.7-1.8c.2-.9.4-2.3.4-3 .1-2 2.5-.9 3 1.3zm9.1-1.5c0 .5-.4 1-.9 1-.6 0-1.3-.5-1.6-1-.3-.6.1-1 .9-1 .9 0 1.6.4 1.6 1zm-110 1c0 .5-.5 1-1.1 1-.5 0-.7-.5-.4-1 .3-.6.8-1 1.1-1 .2 0 .4.4.4 1zm21.7.4c0 .8-.6 1.2-1.4.9-.7-.3-1-.9-.7-1.4.8-1.4 2.1-1.1 2.1.5zm69.3.2c0 1.1-.6 1.4-2.2.8-2.3-.6-2.3-.6.1 1.5 1.9 1.6 2.1 2.1.8 2.1-1 0-1.7.4-1.7.9s-1 1.1-2.2 1.3c-1.3.2-2.1.7-2 1.2.2.5-.2 1.3-1 1.7-2.4 1.6-3.1.9-1.5-1.4 1.4-2.1 1.3-2.4-.1-3.3-2.6-1.7.2-2.4 3.1-.9 1.9 1 2.9 1.1 3.4.2.3-.6.1-1.3-.5-1.5-1.8-.6-1.4-3 .6-3.5 3-.8 3.2-.7 3.2.9zm47.5 1.6c-.4 3.3-.6 3.5-1.4 1.3-.7-1.6.1-3.3 1.5-3.5.1 0 0 1-.1 2.2zm-122.3 0c-.8.8-1.7.8-3.4 0-2.2-1-2.1-1.1 1.2-1.1 2.6-.1 3.1.2 2.2 1.1zm12.3-.2c.3.5-.3 1-1.4 1-1.1 0-2.3-.5-2.6-1-.3-.6.3-1 1.4-1 1.1 0 2.3.4 2.6 1zm40.1-.1c-.7 1.1-4.6 2.1-4.6 1.2 0-1.3 1.3-2.1 3.2-2.1 1.1 0 1.7.4 1.4.9zM383 202c1 .6 1.2 1.2.5 1.9s-1.4.4-2.3-.9c-1.3-2.1-.6-2.5 1.8-1zm75 1c0 1.1-.2 2-.4 2s-1.2.3-2.2.7c-1.3.5-1.5.3-.8-.8.5-.8.9-1.7 1-2.2.3-1.5.4-1.7 1.4-1.7.6 0 1 .9 1 2zm-86.5.8c-.3.3-1.1 0-1.8-.7-.9-1-.8-1.1.6-.5 1 .3 1.5.9 1.2 1.2zm4 0c-.3.3-1.1 0-1.8-.7-.9-1-.8-1.1.6-.5 1 .3 1.5.9 1.2 1.2zm73.5 1c-1.8.6-6.1-.8-5.5-1.7.3-.5 1.9-.4 3.5.2 1.7.7 2.6 1.3 2 1.5zm-86.2.7c-.3.3-.9-.2-1.2-1.2-.6-1.4-.5-1.5.5-.6.7.7 1 1.5.7 1.8zm3.2-1.5c0 .5-.5 1-1.1 1-.5 0-.7-.5-.4-1 .3-.6.8-1 1.1-1 .2 0 .4.4.4 1zm52.1.8c-.7.2-1.8-.1-2.3-.6-.8-.8-.4-.9 1.3-.5 1.3.4 1.8.8 1 1.1zm-30.1.1c0 1.1-2.6 2.2-3.4 1.4-1.2-1.2-.5-2.3 1.4-2.3 1.1 0 2 .4 2 .9zm23.5.1c.3.5-.1 1-.9 1-.9 0-1.6-.5-1.6-1 0-.6.4-1 .9-1 .6 0 1.3.4 1.6 1zm18.2.5c0 .8-.4 1.5-.9 1.5-1 0-1.1-1.4-.1-2.3.9-1 1-.9 1 .8zm-86.9 2.1c0 1.5.6 3 1.3 3.5.7.4 1 1.2.5 1.6-.4.4-1.4-.1-2.2-1.1-1.5-2.2-1.9-6.6-.5-6.6.5 0 .9 1.2.9 2.6zm4.2-1.1c.7.9.8 1.5.2 1.5-.5 0-1.2-.7-1.6-1.5-.3-.8-.4-1.5-.2-1.5s.9.7 1.6 1.5zm32-.5c0 .5-.2 1-.4 1-.3 0-.8-.5-1.1-1-.3-.6-.1-1 .4-1 .6 0 1.1.4 1.1 1zm14 1c0 1.3-1.1 1.3-3 0-1.2-.8-1.1-1 .8-1 1.2 0 2.2.4 2.2 1zm52.5 0c-.3.5-1 1-1.6 1-.5 0-.9-.5-.9-1 0-.6.7-1 1.6-1 .8 0 1.2.4.9 1zm29.2-.4c-.3.3-1.2.4-1.9.1-.8-.3-.5-.6.6-.6 1.1-.1 1.7.2 1.3.5zm-75.9 2.9c2 1.4 3.3 2.5 2.8 2.5-.4 0-.1 1.1.8 2.5 1 1.5 1.2 2.5.6 2.5s-.8.4-.5 1c.3.5.4 1 .1 1-.3 0-1.5-2.1-2.7-4.6-1.1-2.6-2.9-4.9-4-5.1-1-.3-1.9-.9-1.9-1.4 0-1.4.8-1.1 4.8 1.6zm80.2.2c-.8.3-1.9 1.2-2.3 1.9-1.3 2.3-2.9 1.7-1.7-.6.6-1.1 2-2 3.3-1.9 1.5 0 1.7.2.7.6zm29 .3c0 .5-.2 1-.4 1-.3 0-.8-.5-1.1-1-.3-.6-.1-1 .4-1 .6 0 1.1.4 1.1 1zm-119.5 1c.3.6-.1.7-.9.4-1.8-.7-2.1-1.4-.7-1.4.6 0 1.3.4 1.6 1zm-28 1.1c1.1 1.7-.1 2.1-1.5.4-.8-.9-.8-1.5-.2-1.5.6 0 1.4.5 1.7 1.1zm32.2.9c.1 1.1-.2 1.8-.8 1.5-1.1-.7-1.2-3.5-.1-3.5.4 0 .8.9.9 2zm-14.7.5c0 1.1-2.9 1.1-3.3.1-.4-1 .1-1.2 1.4-.9 1 .3 1.9.7 1.9.8zm30-.1c.6.8 1 2.5.8 3.8-.3 2.1-.5 2-2.5-1.5-1.6-2.7-1.9-3.7-.9-3.7.8 0 1.9.7 2.6 1.4zm43.6 1.3c-1 1.1-1.9.7-2.2-1-.2-1.5 0-1.6 1.2-.6.8.6 1.2 1.4 1 1.6zm51.7 1.1c2.7 2.8 2.7 2.9.5 2.6-1.3-.1-2.7-.3-3.2-.3-.5-.1-.4-.7.3-1.4.8-1 .7-1.7-.1-2.5-.7-.7-1-1.2-.7-1.2.3 0 1.7 1.3 3.2 2.8zm-134-.1c-.3.7 0 1.3.7 1.3.6 0 .8.5.5 1.1-.5.6-1.3.2-2.2-1.1-1.2-1.7-1.7-1.9-2.4-.9-.5.8-.9.9-.9.3 0-1.6 1-2.3 3-2.1 1 .1 1.6.7 1.3 1.4zm44.7-.2c.7.8.9 1.5.6 1.5-.4 0 .2 1.3 1.3 2.9 1.8 2.5 1.9 3 .5 3.5-.8.3-1.3.2-1-.3.3-.4-.6-1.9-1.9-3.1-2.4-2.3-3.4-6-1.6-6 .5 0 1.4.7 2.1 1.5zm5 1.1c0 .9.5 1.2 1.3.8.6-.4.9-.4.5.1-.4.4 0 1.4 1 2.1.9.7 1.4 1.5 1 1.9-.9.9-5.8-4.3-5.8-6.2 0-.8.5-1.1 1-.8.6.3 1 1.3 1 2.1zm68.9.3c-1.5.5-2.2-.6-1.4-1.9.6-.9 1-.9 1.6.1.5.8.4 1.5-.2 1.8zM521 215c0 .5-.4 1-1 1-.5 0-1-.5-1-1 0-.6.5-1 1-1 .6 0 1 .4 1 1zm-93.7 3.8c1.6 1.7 1.6 2 .3 2.5-.9.4-1.5.3-1.5-.1.3-2-.3-3.1-2.1-3.7-1.1-.3-2-1.1-2-1.6 0-1.3 3 .3 5.3 2.9zm41.2-1.7c.4.6 1.7 1.5 2.9 2 1.9.9 1.9.9-.4.3-1.4-.3-3.4-.7-4.5-.9-1.1-.2-2.2-.4-2.5-.4-.7-.2 2.3-2.1 3.2-2.1.4 0 1 .5 1.3 1.1zm-120 2c.5.6.3.9-.7.9-2.4 0-4.8-1.1-4.8-2.2 0-1 3.9-.1 5.5 1.3zm85-.9c1.4.6 2.5 1.5 2.5 2 0 1.4-1.6.9-4-1.2-2.6-2.3-2.2-2.5 1.5-.8zm-101.1 1.9c-.3.5-1 .7-1.5.3-.5-.3-.7-1-.3-1.5.3-.5 1-.7 1.5-.3.5.3.7 1 .3 1.5zm30 .1c-.3.4.1.8.8.8.8.1.6.6-.6 1.5-2.3 1.8-4.5 2-2.9.4.6-.6.9-1.7.7-2.4-.3-.6.2-1.2 1-1.2s1.3.4 1 .9zm80.8 4.2c1.6 1.5 2.6 3.1 2.3 3.4-.8.8-6.5-6-6.4-7.7 0-1.4.1-1.4.6-.1.4.8 1.9 2.8 3.5 4.4zm-59.7-2.6c-.3.3-1.1 0-1.8-.7-.9-1-.8-1.1.6-.5 1 .3 1.5.9 1.2 1.2zm65.8.2c.5.4.3 1.1-.4 1.6-.7.4-1.4.3-1.7-.4-.2-.7-1-1.2-1.7-1.2-.8 0-1.7-.5-2-1-.7-1.2 4.4-.3 5.8 1zm-42.3 2.4c1.4 1.6 1.8 2.5 1 2.1-2.9-1.7-4.9-3.9-4.3-4.7.3-.5.6-.8.7-.6 0 .2 1.2 1.6 2.6 3.2zm4.6-1.7c.7 1 1.4 2.4 1.4 3.2 0 .8-.9.2-2-1.2s-2-2.8-2-3.1c0-1.2 1.3-.6 2.6 1.1zm-38.6 1.8c0 2.6-1.4 3.3-2.5 1.5-.9-1.4.1-4 1.5-4 .5 0 1 1.1 1 2.5zm57.9 2.4c-1.3.4-1.5.2-2.3-2.9l-.7-2.5 2 2.5c1.1 1.4 1.5 2.7 1 2.9zm5.6-4c.3.5.2 1.2-.3 1.5-.5.3-.9-.1-.9-.9 0-1.7.3-1.9 1.2-.6zm41 .1c-2.7 1.2-4.3 1.2-2.5 0 .8-.5 2.2-.9 3-.9 1 0 .8.3-.5.9zm-100.1 2.5c.6 1.7-.9 2.9-2.4 2-.5-.3-1-1.5-1-2.5 0-2.2 2.5-1.8 3.4.5zm141.1-.6c.3.5.2 1.2-.3 1.5-.5.3-.9-.1-.9-.9 0-1.7.3-1.9 1.2-.6zm-148 4.9c-.8.8-2.5-1.7-2.5-3.8 0-.9.6-.6 1.6.8.9 1.3 1.3 2.6.9 3zm19-3c-.3.3-1.1 0-1.8-.7-.9-1-.8-1.1.6-.5 1 .3 1.5.9 1.2 1.2zm36.5-.3c1.1 1.3 1 1.4-.4.9-.9-.3-1.6-1-1.6-1.5 0-1.3.6-1.1 2 .6zm25.5-.5c.3.5-.1 1-1 1s-1.3-.5-1-1c.3-.6.8-1 1-1 .2 0 .7.4 1 1zm33.5 0c0 .5-.2 1-.4 1-.3 0-.8-.5-1.1-1-.3-.6-.1-1 .4-1 .6 0 1.1.4 1.1 1zm-160.5 1c.3.5.2 1-.4 1-.5 0-1.3-.5-1.6-1-.3-.6-.2-1 .4-1 .5 0 1.3.4 1.6 1zm181.5 0c0 .5-.5 1-1.1 1-.6 0-.8.7-.5 1.6.5 1.4.4 1.5-.8.5-1.2-1-1.3-1.6-.3-2.6 1.4-1.7 2.7-1.9 2.7-.5zm15.1 1.7c1.3 1.6 1.2 1.7-.3.4-1-.7-1.8-1.5-1.8-1.7 0-.8.8-.3 2.1 1.3zM335 231.2c0 .4-.6.5-1.4.2-.8-.3-1.2-1.2-.9-2.1.5-1.2.7-1.2 1.4-.1.5.7.9 1.6.9 2zm60-1.7c-.7.9-1.5 1.3-1.7 1.1-.7-.7.7-2.6 1.9-2.6.6 0 .6.6-.2 1.5zm-14.6 1c-.4.8-1.1 1.5-1.6 1.5-.6 0-.5-.6.2-1.5.7-.8 1.4-1.5 1.6-1.5.2 0 .1.7-.2 1.5zm60.1-.5c.3.5.1 1-.4 1-.6 0-1.1-.5-1.1-1 0-.6.2-1 .4-1 .3 0 .8.4 1.1 1zm-108.8 4.2c-.2 2.5-1.2 2.2-2.5-.7-1.6-3.5-1.5-3.7.7-2.3 1.1.6 1.9 2 1.8 3zm31.3-3.5c-.8.3-2.2 1.1-3 1.7-1.3 1-1.3.9-.1-.7.7-.9 2.1-1.7 3-1.6 1.3 0 1.4.1.1.6zm35 .3c0 .5-.5 1-1.1 1-.5 0-.7-.5-.4-1 .3-.6.8-1 1.1-1 .2 0 .4.4.4 1zm136.5 0c.3.6-.1.7-.9.4-1.8-.7-2.1-1.4-.7-1.4.6 0 1.3.4 1.6 1zm-2.6 1.6c.4-.3.8.1.8.8 0 2.2-2.3 1.4-2.4-.8-.1-1.2.1-1.5.4-.8.3.6.8 1 1.2.8zM377 234.4c0 .2-.7.7-1.6 1-.8.3-1.2.2-.9-.4.6-1 2.5-1.4 2.5-.6zm14.9 1.9c0 .8-.2.8-.6-.1-.4-1-.8-1-2.1 0-1.5 1.2-1.6 1.1-.3-.4 1.4-1.9 3.2-1.5 3 .5zm11.7-.8c-.8.8-1.8 1.5-2.2 1.5-.3 0-.1-.7.6-1.5s1.7-1.5 2.2-1.5c.5 0 .3.7-.6 1.5zm-72.4 1.5c1 0 1.8.4 1.8.9 0 1.4-3.8.1-5.2-1.8-1-1.3-1-1.4.2-.4.8.7 2.2 1.3 3.2 1.3zm189.8-1.1c0 .5-1.1.8-2.5.8-1.3 0-2.2-.3-1.9-.8.3-.5 1.4-.9 2.5-.9 1 0 1.9.4 1.9.9zm9.7 1.6c0 .8-.4 1.5-.9 1.5-1 0-1.1-1.4-.1-2.3.9-1 1-.9 1 .8zm-163.7.4c0 .5-.7 1.2-1.6 1.5-1.4.5-1.5.4-.4-.9 1.4-1.7 2-1.9 2-.6zm49.9-.6c-3.5 2.8-6.9 4.6-6.9 3.8 0-1 4.7-4 6.4-4.1.5 0 .7.1.5.3zm-87.5 3.8c-.3.5-1 .7-1.5.3-.5-.3-.7-1-.3-1.5.3-.5 1-.7 1.5-.3.5.3.7 1 .3 1.5zm215.9-.6c-.3.9-.8 1.4-1 1.1-.3-.3-.2-.9.2-1.5.9-1.6 1.5-1.3.8.4zm-121.8.5c-2.6 1.1-4.5 1.2-4.5.2 0-.4 1.5-.8 3.3-.9 2.6-.2 2.8 0 1.2.7zm92.8 1.4c.3-.3.8 0 1.2.6.4.6.1.9-.7.8-.7-.2-1.2.3-1 .9.1.7-.3 1.3-.9 1.3-.6 0-.8-.7-.5-1.6.3-.9.2-1.2-.5-.9-.5.4-1.8.1-2.7-.6-1.2-1-1.2-.8.2.9 1.6 1.8 1.7 2.2.4 1.7-1.9-.7-3.1-3.2-2.2-4.6.3-.5 1.8-.2 3.3.6 1.6.8 3.1 1.2 3.4.9zm-183.9.2c.3.8.2 1.2-.4.9-.6-.3-1-1-1-1.6 0-1.4.7-1.1 1.4.7zm101-1c2.4.9 1.9 2.2-.6 1.9-3-.3-3-.3-2.3-1.5.7-1.2.8-1.2 2.9-.4zm-27.4 2.8c0 1.1-1.9 1.5-2.5.6-.3-.5.1-1 .9-1 .9 0 1.6.2 1.6.4zm131.8 1.1c-.2.5-1.1 1.1-2.2 1.2-1.6.3-1.7.1-.6-1.2 1.4-1.6 3.4-1.6 2.8 0zm-127.8.7c0 .4-.7.8-1.5.8s-1.5-.4-1.5-.8c0-.5.7-.9 1.5-.9s1.5.4 1.5.9zm-74 .8c.8.5 1.1 1 .5 1-.5 0-1.7-.5-2.5-1s-1-1-.5-1c.6 0 1.7.5 2.5 1zm197.1.7c1.3 1.6 1.2 1.7-.3.4-1-.7-1.8-1.5-1.8-1.7 0-.8.8-.3 2.1 1.3zm13.4-.7c.3.5.1 1-.4 1-.6 0-1.1-.5-1.1-1 0-.6.2-1 .4-1 .3 0 .8.4 1.1 1zm-131.5.8c0 .5-.7.9-1.5.9s-1.5-.4-1.5-.9c0-.4.7-.8 1.5-.8s1.5.4 1.5.8zm9.6 1.1c-.3.5-1.6 1.1-2.8 1.4-2.2.6-2.2.5-.4-.8 2.2-1.7 4-2 3.2-.6zm35.7.4c.3.8-.3 1.4-1.4 1.4-2.1.2-2.6-1.3-.6-2 .6-.3 1.3-.6 1.3-.6.1-.1.4.5.7 1.2zM344 255.6c0 .3-1.3-.4-3-1.6-1.6-1.2-3-2.4-3-2.6 0-.3 1.4.4 3 1.6 1.7 1.2 3 2.4 3 2.6zm85.5-2.6c.3.5-.1 1-1 1s-1.3-.5-1-1c.3-.6.8-1 1-1 .2 0 .7.4 1 1zm130 5.9c1.8 1.1 1.8 1.2-.7.7-1.5-.4-3-.2-3.3.4-.3.5-1.2 1-1.8 1-.7 0-.3-.7.7-1.5 1.1-.8 1.6-1.5 1.2-1.5-.4 0-.4-.5 0-1.1.4-.7.9-.7 1.3-.2.3.5 1.5 1.5 2.6 2.2zm-.8 4.4c1.1-.4 1.4-.2.9.5-.9 1.4-1.6 1.5-3.5.3-.8-.6-1-1.4-.5-2.2.7-1.1.9-1.1 1.2.3.2 1.1.9 1.5 1.9 1.1zm-11.2 3.5c-.6 1.6-.7 1.6-1.6 0-.5-.9-.6-2.4-.3-3.3.7-1.6.8-1.6 1.6 0 .5.9.7 2.4.3 3.3zm12.6.5c-1 .9-1.1.8-.5-.6.3-1 .9-1.5 1.2-1.2.3.3 0 1.1-.7 1.8zm-174.9.5c-.7.2-1 .8-.7 1.3.4.5-.2.6-1.1.2-1.1-.4-1.3-.8-.6-1.1.7-.2 1-.8.7-1.3-.4-.5.2-.6 1.1-.2 1.1.4 1.3.8.6 1.1zm142.8 1.5c0 .5-.4.5-1 .2-.5-.3-1-1.4-1-2.3 0-1.5.2-1.5 1-.2.5.8 1 1.9 1 2.3zm24-1.2c0 .6-.4.7-1 .4-.5-.3-1-1.1-1-1.6 0-.6.5-.7 1-.4.6.3 1 1.1 1 1.6zm13 1.1c0 .6-.7.7-1.6.4-.9-.3-1.8-.6-2-.6-.3 0-.3-.4.1-1 .7-1.1 3.5-.2 3.5 1.2zm-172 .8c0 .5-.7 1-1.6 1-.8 0-1.2-.5-.9-1 .3-.6 1-1 1.6-1 .5 0 .9.4.9 1zm-7 3.2c0 .5-.9.4-2-.2-1.1-.6-2-1.2-2-1.4 0-.2.9-.2 2 .1 1.1.3 2 .9 2 1.5zm3.5.8c.3.5.2 1-.4 1-.5 0-1.3-.5-1.6-1-.3-.6-.2-1 .4-1 .5 0 1.3.4 1.6 1zm10.2 2.6c-.3.3-1.2.4-1.9.1-.8-.3-.5-.6.6-.6 1.1-.1 1.7.2 1.3.5zM497 279c0 .5-.2 1-.4 1-.3 0-.8-.5-1.1-1-.3-.6-.1-1 .4-1 .6 0 1.1.4 1.1 1zm-93.4 3.7c-.2.2-1.1 0-2-.3-1.4-.5-1.5-.9-.5-1.5 1.2-.7 3.4 1 2.5 1.8zm12.9-1.7c.3.5.1 1-.4 1-.6 0-1.1-.5-1.1-1 0-.6.2-1 .4-1 .3 0 .8.4 1.1 1zm-14.8 3.7c-.7.6-4.6-1-4.1-1.8.3-.5 1.4-.3 2.4.3 1.1.7 1.8 1.3 1.7 1.5zm11.3 3.8l2.5 1.7-2.5-.6c-1.4-.3-3.1-.6-3.8-.6-.7 0-1-.5-.7-1 .3-.6-.1-1-1-1-1.1 0-1.5-.5-1.1-1.5.3-.8.1-1.5-.4-1.5-.6 0-1-.5-1-1.2 0-.6 1.2 0 2.8 1.4 1.5 1.4 3.8 3.3 5.2 4.3zm-23.4-2.7c-.4.3-1.4-.2-2.4-1.2-1.6-1.8-1.6-1.8.6-.6 1.3.6 2.1 1.4 1.8 1.8zm78.1.4c-.3.7-.5.2-.5-1.2s.2-1.9.5-1.3c.2.7.2 1.9 0 2.5zm-28.7 1.3c0 .8-.4 1.5-1 1.5-.5 0-.7-.7-.4-1.5.4-.8.8-1.5 1-1.5.2 0 .4.7.4 1.5zm-31.8 2.5c3 1.3 3.6 1.9 2.5 2.8-.8.7-1.8.7-2.7.2-1.3-.9-1.3-1 0-1 1.2-.1 1.1-.3-.3-1.1-1-.6-2.6-.8-3.5-.4-.9.3-1.3.3-.9-.1.4-.5-.3-1.4-1.5-2.1l-2.3-1.4 2.4.7c1.3.3 4.1 1.4 6.3 2.4zm63.5-.8c-.3.8-.6.5-.6-.6-.1-1.1.2-1.7.5-1.3.3.3.4 1.2.1 1.9zm40.8 1.7c.3.5.2 1.2-.3 1.5-.5.3-.9-.1-.9-.9 0-1.7.3-1.9 1.2-.6zm-94 3.4c1.4 1.1 1.5 1.6.5 2.2-.7.4-1.5.3-1.9-.3-.4-.6-1.8-1.5-3.1-2.1l-2.5-1h2.6c1.4-.1 3.3.5 4.4 1.2zm-17.8.3c-.3.3-1.2.4-1.9.1-.8-.3-.5-.6.6-.6 1.1-.1 1.7.2 1.3.5zm168.9 4.6c-1.8 2.6-2.2 1.7-.5-1.4.6-1.1 1.3-1.7 1.6-1.5.3.3-.2 1.6-1.1 2.9zM421 298c0 .5-.2 1-.4 1-.3 0-.8-.5-1.1-1-.3-.6-.1-1 .4-1 .6 0 1.1.4 1.1 1zm44.7 2.2c-.3.8-.6.5-.6-.6-.1-1.1.2-1.7.5-1.3.3.3.4 1.2.1 1.9zm105.6-.2c-.3 1.2-.8 1.9-1.1 1.6-.5-.6.5-3.6 1.2-3.6.2 0 .2.9-.1 2zm1.7 2.7c-1.1 1.7-1.1 1.7-.6 0 .3-1 .6-2.4.7-3 0-.9.2-.9.5 0 .3.7 0 2-.6 3zm-148.7-1.3c.9-.5.9-.4 0 .6-.7.7-1.9 1-3 .6-1.5-.6-1.5-.8-.3-1.6.9-.6 1.6-.6 1.8 0 .2.6.9.7 1.5.4zm151.4 1.8c-.3.8-.6.5-.6-.6-.1-1.1.2-1.7.5-1.3.3.3.4 1.2.1 1.9zM426 305c0 .5-.4 1-1 1-.5 0-1-.5-1-1 0-.6.5-1 1-1 .6 0 1 .4 1 1zm153.7 2.2c-.3.7-.5.2-.5-1.2s.2-1.9.5-1.3c.2.7.2 1.9 0 2.5zm-154 6.4c-.3.3-1.2.4-1.9.1-.8-.3-.5-.6.6-.6 1.1-.1 1.7.2 1.3.5zm13.8 1.4c.8 1.3-.5 1.3-2.5 0-1.3-.8-1.3-1 .2-1 .9 0 2 .4 2.3 1zm151.5-.6c0 .3-.4.8-1 1.1-.5.3-1 .1-1-.4 0-.6.5-1.1 1-1.1.6 0 1 .2 1 .4zm4.3 2.1c-.3.9-.8 1.4-1 1.1-.3-.3-.2-.9.2-1.5.9-1.6 1.5-1.3.8.4zm-63.9 2.1c.3.8.2 1.2-.4.9-.6-.3-1-1-1-1.6 0-1.4.7-1.1 1.4.7zm65.3 2.6c-.3.7-.5.2-.5-1.2s.2-1.9.5-1.3c.2.7.2 1.9 0 2.5zm-153.2.3c2.2 1.8 3.2 2.1 4.2 1.3.8-.7 1.3-.7 1.3 0 0 .5 1.6 1.7 3.6 2.7 2.8 1.3 3.3 1.9 2.3 2.6-.8.5-2.3.8-3.4.8-1.6-.1-1.6-.2.5-.9 1.4-.5 1.8-.8.9-.9-.9-.1-2.2-.8-2.9-1.6-.7-.9-1.8-1.4-2.4-1.2-1 .4-6.1-1.9-9.6-4.2-1.2-.9-1.1-1.1.6-1.1 1.1 0 3.4 1.1 4.9 2.5zm72.2-1c0 .8-.4 1.5-.9 1.5-1 0-1.1-1.4-.1-2.3.9-1 1-.9 1 .8zm83 3.7c-.3.8-.6.5-.6-.6-.1-1.1.2-1.7.5-1.3.3.3.4 1.2.1 1.9zm-73.2.9c-.3.4-1.2.6-2 .3-.8-.4-1.3-1-1-1.5.3-.4 1.2-.6 2-.3.8.4 1.3 1 1 1.5zm75.2.1c-.3.8-.6.5-.6-.6-.1-1.1.2-1.7.5-1.3.3.3.4 1.2.1 1.9zm-137 5.9c4.8 2.2 5.2 3.6.6 2.4-1.5-.5-3.4-.7-4.2-.6-.8.1-1-.2-.6-.9s.1-1.6-.6-2.1c-2.5-1.6.1-.9 4.8 1.2zm113.3 2.4c0 1.2-1.9 1.2-2.3 0-.4-.9-.1-1.2.9-.8.7.3 1.4.7 1.4.8zM467.3 338c1.4 1.1 3.2 2 4.1 2 .9 0 1.6.4 1.6 1 0 2-3.9.9-7-2-3.6-3.4-2.7-4.1 1.3-1zm-5.5 1c.7 1.1 1.1 2 .9 2-.2 0-1.2-.9-2.2-2-1-1.1-1.4-2-.9-2 .5 0 1.5.9 2.2 2zm17.9 3.5c0 .8-.4 1.2-.9.9-.4-.3-.8-.9-.8-1.5 0-.5.4-.9.8-.9.5 0 .9.7.9 1.5zm-12.2 1.3c-.3.3-1.1 0-1.8-.7-.9-1-.8-1.1.6-.5 1 .3 1.5.9 1.2 1.2zM478 345c.8.5 1.1 1 .5 1-.5 0-1.7-.5-2.5-1s-1-1-.5-1c.6 0 1.7.5 2.5 1zm13.5 2c.3.5.1 1-.4 1-.6 0-1.1-.5-1.1-1 0-.6.2-1 .4-1 .3 0 .8.4 1.1 1zm-5.7 3.2c1.4 1.3 2.2 1.7 1.7.9-.5-.9-.3-1.2.6-.9 1.3.5 1.5 4.5.4 5.7-.3.3-2-1.1-3.7-3-1.7-1.9-3.6-3.3-4.1-3.1-.4.1-.6-.2-.2-.8 1-1.6 2.7-1.2 5.3 1.2zm6.7 6.7c-.3 1.2-1.3 2.1-2.1 2.1s-1.4.5-1.4 1.1c0 .5-.5.7-1.2.3-.9-.6-.9-.9 0-1.2.7-.2 1.2-1 1.2-1.8s.5-1.4 1-1.4c.6 0 .9-.3.9-.8-.3-1.9.2-2.5 1.2-1.5.6.6.8 2 .4 3.2zm-9 4.1c.3.5.2 1-.4 1-.5 0-1.3-.5-1.6-1-.3-.6-.2-1 .4-1 .5 0 1.3.4 1.6 1zm2.9 1.6c.3.8.2 1.2-.4.9-.6-.3-1-1-1-1.6 0-1.4.7-1.1 1.4.7zm9.6-.2c0 1.1-1.9 1.5-2.5.6-.3-.5.1-1 .9-1 .9 0 1.6.2 1.6.4zm-11.5 4.7c1.1 1.7.2 1.8-1.9.3-1.7-1.2-1.7-1.4-.4-1.4.9 0 2 .5 2.3 1.1zm43.1.7c-1 .2-2.2 0-2.8-.6-.6-.6 0-.7 1.9-.4 2.1.5 2.3.7.9 1zm-87.1.2c.3.5.1 1-.4 1-.6 0-1.1-.5-1.1-1 0-.6.2-1 .4-1 .3 0 .8.4 1.1 1zm41.5 1c0 .5-.4 1-1 1-.5 0-1-.5-1-1 0-.6.5-1 1-1 .6 0 1 .4 1 1zm13.5 0c.3.5.1 1-.4 1-.6 0-1.1-.5-1.1-1 0-.6.2-1 .4-1 .3 0 .8.4 1.1 1zm37.2-.4c-.3.3-1.2.4-1.9.1-.8-.3-.5-.6.6-.6 1.1-.1 1.7.2 1.3.5zm11.3.4c-1.4.4-3.8.8-5.5.8-2.9-.1-2.9-.1.5-.8 5-1.1 8.3-1.1 5 0zm-55.5 2c.3.6-.1.7-.9.4-1.8-.7-2.1-1.4-.7-1.4.6 0 1.3.4 1.6 1zm58.6.5c-3.9 1.7-7.6 2.1-5.1.6.8-.6 1.7-.8 2.1-.5.4.2 1 0 1.4-.6.3-.5 1.6-1 2.8-1 1.8.1 1.5.4-1.2 1.5zm-68.6.5c.8 1.3-.5 1.3-2.5 0-1.3-.8-1.3-1 .2-1 .9 0 2 .4 2.3 1zm79.9.5c-.4.8-1.1 1.5-1.6 1.5-.6 0-.5-.6.2-1.5.7-.8 1.4-1.5 1.6-1.5.2 0 .1.7-.2 1.5zm-112.9.6c1.1 1.7-.1 2.1-1.5.4-.8-.9-.8-1.5-.2-1.5.6 0 1.4.5 1.7 1.1zm92.7-.3c-1.2.2-2 .8-1.7 1.3.4.5-.4.7-1.7.5-1.3-.3-2.6-.5-3-.5-.5-.1-.8-.5-.8-.9 0-.5 2.1-.9 4.8-.9 2.6.1 3.7.2 2.4.5zm12.8.7c-.7.9-1.5 1.3-1.9 1-.3-.3.1-1 .9-1.5 2.1-1.4 2.4-1.2 1 .5zm2.9 2.6c-.8.5-2.1.8-2.9.8-1.3-.1-1.3-.1 0-.6.8-.3 1.9-1.3 2.4-2.2.7-1.2 1-1.3 1.4-.2.2.7-.2 1.7-.9 2.2zm6.9-1.9c-.3 1.4-2.8 3.7-4.1 3.8-.4 0 0-1.1 1-2.5 1.9-2.6 3.5-3.3 3.1-1.3zm8.2.9c0 .5.5.7 1.2.3.6-.4.8-.3.5.3-.4.6-1.9 1.3-3.4 1.6-2.4.4-2.5.4-1-.7.9-.7 1.4-1.6 1-1.9-.3-.4-.1-.7.5-.7.7 0 1.2.5 1.2 1.1zm11.8 1.5c1.5.4 3.4.8 4.2.9 11 1.9 40.3 9.5 41.5 10.7.7.8.6.9-.2.4-1.6-.9-1.7.6-.1 2.2 1.6 1.6 3.1 1.5 2.2-.1-.4-.6.1-.4 1.2.5 1.5 1.4 1.6 2 .5 3-1 1.1-1.1.9-.6-.7.5-1.6.5-1.7-.3-.5-.6.8-.8 1.9-.4 2.5.4.5.7 2.3.7 4 0 2 .5 3 1.5 3 1.3 0 1.6.9 1.1 4.6 0 .5-.5.8-1 .5-.4-.3-.6.6-.3 2.1.4 2.1.2 2.5-1.2 2-.9-.4-1.6-.2-1.6.2 0 .5.6 1.1 1.4 1.4 1.7.7 3 5.7 1.8 6.9-.6.6-1.2.3-1.6-.7-.4-1-.2-1.4.6-.9.7.5.8.3.3-.6-.6-1-1.1-.9-2.2.5-1.6 2.3-1.7 3.5 0 3.5.8 0 .7.3-.3 1-1.3.8-1.2 1.2.4 2.7 1.8 1.7 1.9 1.7 1.2-.1-.6-1.7-.5-1.7 1-.5 1.6 1.3 1.6 1.2.5-1.1-1.2-2.5-1.2-2.5.6-.4 1 1.1 2.4 1.9 3.2 1.6.8-.3 1.2.3 1 1.4-.7 5.7 6.2 12.8 7.4 7.6.6-2.8 9 15.9 18.4 41.3 2.5 6.6 4.9 12.9 5.3 14 .5 1.1 1.4 4.5 2 7.5.7 3 2 7.3 3 9.5 2.3 5.4 3.5 8.8 5.5 16.5.9 3.6 2.1 7.3 2.6 8.3.5 1 .7 2.3.3 2.9-.4.6-.3.8.4.5 1-.7 1.9 2.7 8.7 32.8 3.6 16 4.9 27.2 3.5 29.4-.4.8-.4 2.5.1 3.8.5 1.3.5 3.2-.1 4.5-.5 1.3-.9 1.9-.9 1.5-.1-.5-.6-.5-1.1-.2-.8.5-.7 1.1 0 2 1.7 2-2.7 3-6.5 1.5-1.9-.7-3.1-.8-3.3-.1-.2.5-1 .7-1.9.4-1-.4-1.4-.2-.9.5.4.7-1 1.3-3.9 1.7-2.7.4-4.5 1.3-4.5 2 0 1.1-.8 1.1-4.4 0-2.4-.8-4.6-1.1-4.9-.8-1.1 1.1-4.7-1.9-4.8-4 0-1.7-.5-1.3-1.8 1.7-1.1 2.6-2 3.6-2.5 2.8-.4-.7-1.5-1.2-2.4-1.2-2.2 0-7.2-4.6-7.2-6.5 0-.8-.4-1.5-1-1.5s-.5 1 .2 2.5c1.6 3.5.5 4.1-4.4 2.4-2.4-.8-4.4-1.2-4.5-.9-.1.3-1.3-.6-2.8-2-1.5-1.4-2.8-2.4-3.1-2.3-1.1.7-6.6-1.2-7.1-2.3-.3-.8-1.1-1.4-1.8-1.4-1.4 0-1.7-.8-3-6.4-.4-2-.9-2.6-1.4-1.8-.5.8-1.5-.8-2.6-4.2-1-3-2.2-5.3-2.7-5-.4.3-.8.3-.8.1 0-.2-.5-2.8-1-5.8-.6-3-1.2-7.2-1.5-9.4-.2-2.2-.9-7.7-1.4-12.2-.5-4.5-1.5-9.1-2.1-10.2-.6-1.2-1.3-5.1-1.7-8.9-.3-3.7-.9-7.4-1.3-8.2-.5-.8-1.5-8.3-2.4-16.5-1.7-15.2-3.8-28.7-5.7-36-.6-2.2-1.5-6.3-1.9-9-.5-2.8-1.3-7-2-9.4-.6-2.5-1.3-7.2-1.5-10.5-.3-3.4-.9-9.5-1.5-13.6s-1.3-9.5-1.4-12c-.4-6-.5-6.2-1.4-5.6-.5.3-.9 0-1-.7-.1-.7-.6-3.5-1.1-6.2-.5-2.8-1.3-6.8-1.6-9-.4-2.2-1.1-4.2-1.5-4.5-.4-.3-.6-1.6-.5-3 .1-1.4-.2-3.1-.8-3.8-.5-.6-.6-1.2-.2-1.2.4 0 .1-.8-.6-1.7-1.2-1.5-1.2-1.6.1-.8 1.2.7 1.3.6.3-.6-.6-.8-1-2.4-.8-3.4.2-1.1.4-3 .4-4.3.1-2.4.2-2.4 7.9-.6zm-38.5.1c-.7.2-1.9.2-2.5 0-.7-.3-.2-.5 1.2-.5s1.9.2 1.3.5zm28.6 3.4c-1.9 1.2-2.4.2-.8-1.7.9-1.1 1.4-1.3 1.7-.4.3.7-.2 1.6-.9 2.1zM555 379c0 .5-.6 1-1.4 1-.7 0-2.9.2-4.7.5-3.3.5-3.2.5.6-.9 5.1-1.8 5.5-1.8 5.5-.6zm6-.6c0 .3-.4.8-1 1.1-.5.3-1 .1-1-.4 0-.6.5-1.1 1-1.1.6 0 1 .2 1 .4zm-18.7 1.3c-.7.2-1.9.2-2.5 0-.7-.3-.2-.5 1.2-.5s1.9.2 1.3.5zm19.2 3.2c.3.5.2 1.2-.3 1.5-.5.3-.9-.1-.9-.9 0-1.7.3-1.9 1.2-.6zm-9.1 1.3c-.7 1.1-3.2 1-3.9-.2-.3-.6.4-.9 1.9-.8 1.3.1 2.2.6 2 1zm17.3 1.4c-.3.3-1.2.4-1.9.1-.8-.3-.5-.6.6-.6 1.1-.1 1.7.2 1.3.5zm-6.7 1.8c0 .2-.7.7-1.6 1-.8.3-1.2.2-.9-.4.6-1 2.5-1.4 2.5-.6zm-8.7 4.3c-.7.2-1.9.2-2.5 0-.7-.3-.2-.5 1.2-.5s1.9.2 1.3.5zm-92.8 4.3c1.3 2.6 1.3 3 .1 3-.8 0-2.2-.7-3.1-1.6-1.2-1.2-1.3-1.9-.4-3 1.5-1.9 1.6-1.8 3.4 1.6zm-4.1 2.5c1.5 2.3 1.5 2.6.1 3.1-1.8.7-5.5-2.2-5.5-4.3 0-2.2 3.7-1.4 5.4 1.2zm77.6-.9c0 .8-.5 1.2-1 .9-.6-.4-.8-1.1-.5-1.6.9-1.4 1.5-1.1 1.5.7zm-3 1.4c3 1.1 5.1 2 4.5 2-.5 0 .4.7 2 1.5 1.7.9 5.7 3.1 9 5s6.8 3.8 7.8 4.1c4.6 1.7.3 2.4-14.2 2.4-16.7 0-20.4-.7-25.8-4.7-3.8-2.8-4.2-4.3-1.3-5 1.1-.3 2-1.1 2-1.9 0-.7.8-1.3 1.8-1.3 2.7.1 8.1-.9 9.3-1.7.8-.4.7-.9-.2-1.5-2-1.3-1-1.1 5.1 1.1zm-80.5 1c.3 1.1 1.1 2 1.6 2 1.3 0 1.1 2.7-.3 3.6-.6.4-2.1-.4-3.5-2-1.9-2.2-2.1-3.1-1.2-4.2 1.6-1.9 2.7-1.8 3.4.6zm-3.8 4c.4 2.1-1.3 4.4-2.6 3.6-.6-.4-1.1-1.8-1.1-3.2 0-1.9.5-2.5 1.7-2.2 1 .2 1.9 1 2 1.8zm30.2-.9c3.4 1.2 4 2.7 1.4 3.5-1 .3-2.9 1.2-4.3 1.9-3 1.6-4.4 1-5.4-2.3-.6-1.7-.3-2.4 1.6-3.1 3-1.3 3-1.3 6.7 0zm-35.5 3.5c.9 2.4.7 3.4-.8 3.4-1.8 0-3.9-2.7-3.1-4 .9-1.5 3.2-1.2 3.9.6zm193.6 0c0 .8-.4 1.2-1 .9-.5-.3-1-.1-1 .6s-.3.9-.6.6c-.4-.4-.1-1.3.6-2.2 1.6-1.9 2-1.9 2 .1zm4.2 3.1c.6.7.5 1.4-.3 1.9s-1 .3-.5-.7c.4-.8 0-.5-.8.5-1.5 1.9-1.6 1.9-1.6-1 0-3.3 1.2-5.4 1.9-3.2.2.7.8 1.8 1.3 2.5zM472 411c0 .5-.4 1-1 1-.5 0-1-.5-1-1 0-.6.5-1 1-1 .6 0 1 .4 1 1zm-5.9 1.7c1.3 1.6 1.2 1.7-.3.4-1.7-1.3-2.2-2.1-1.4-2.1.2 0 1 .8 1.7 1.7zm34.2 1c-3.4.2-9.3.2-13 0-3.7-.2-.9-.3 6.2-.3 7.2 0 10.2.1 6.8.3zm-21.8 1.3c.3.5.1 1-.4 1-.6 0-1.1-.5-1.1-1 0-.6.2-1 .4-1 .3 0 .8.4 1.1 1zm47 1c.3.5.1 1-.4 1-.6 0-1.1-.5-1.1-1 0-.6.2-1 .4-1 .3 0 .8.4 1.1 1zm-42.8 2.6c-.9.9-2.8-.6-2.1-1.8.4-.6 1-.6 1.7.1.6.6.8 1.3.4 1.7zm45.8.4c.3.5.2 1-.4 1-.5 0-1.3-.5-1.6-1-.3-.6-.2-1 .4-1 .5 0 1.3.4 1.6 1zm-42.5 2c0 .5-.4 1-1 1-.5 0-1-.5-1-1 0-.6.5-1 1-1 .6 0 1 .4 1 1zm44 .4c0 .3-.4.8-1 1.1-.5.3-1 .1-1-.4 0-.6.5-1.1 1-1.1.6 0 1 .2 1 .4zm-42.4 3.3c-1 1-1.9-.5-1-1.8.6-1.1.8-1.1 1.2 0 .2.7.1 1.5-.2 1.8zM643 426c0 .5-.2 1-.4 1-.3 0-.8-.5-1.1-1-.3-.6-.1-1 .4-1 .6 0 1.1.4 1.1 1zm-423.8 10.2c6.1 1.8 12.3 7.9 14.8 14.6 2.9 7.8 2.9 19.6 0 27.4-2.5 6.7-8.9 13.1-14.6 14.7-2.2.6-11 1.1-19.7 1.1h-15.8l.3-2.3c.2-1.8 1-2.3 4.1-2.5l3.7-.3v-48.8l-3.7-.3c-3.1-.2-3.9-.7-4.1-2.6l-.3-2.2h15.7c9.1 0 17.3.5 19.6 1.2zm69.6 7c.7.7 1.2 2.9 1.2 5v3.8h4.9c4.9 0 7.9 1.8 6.6 4-.3.5-3.1 1-6.1 1H290v15.4c0 12.7.3 15.7 1.6 17 2.1 2.2 5.3.4 6.1-3.4.7-3.9 2.6-5.5 4.3-3.5 1.8 2.2.4 7.7-2.6 10.6-3.4 3.2-9.5 3.2-12.6.1-2.2-2.1-2.3-3.3-2.8-19l-.5-16.7-3-.3c-1.6-.2-3.4-.8-3.9-1.2-1.5-1.5 1.4-4 4.5-4 2.7 0 2.9-.2 2.9-4.3 0-2.4.3-4.7.7-5 1-1.1 2.8-.8 4.1.5zm-23.8 9.1c1.9.7 4.4 2.7 5.7 4.6 2.1 3.1 2.3 4.5 2.3 17.7V489h2.4c2.6 0 5.1 2.4 4.1 4-.3.5-3.3 1-6.6 1-5.3 0-5.9-.2-5.9-2.1 0-2-.1-2-3 .4-5.9 5-16.6 4.3-21.4-1.4-2-2.3-2.6-4.2-2.6-7.7 0-10 4.3-13.5 17.3-14.2l9.2-.5-.1-3.8c-.1-2-.9-4.6-1.9-5.7-4.4-4.8-14.7-2.8-16.2 3.1-1.2 4.3-3.7 5.9-5.9 3.7-3.3-3.3 1.8-11.8 8.2-13.8 4.1-1.2 10.3-1.1 14.4.3zm64.7.2c6.9 2.9 7.8 5.1 8.1 21.6l.3 14.7 3 .6c2.1.4 2.9 1.1 2.9 2.6 0 1.8-.6 2-6 2-5.9 0-6-.1-6-2.8v-2.7l-1.8 2.2c-4.8 6.2-16 6.7-21.9.8-2.8-2.8-3.3-4-3.3-8.2 0-10.1 4.2-13.6 17.3-14.3l9.2-.5-.1-3.8c-.2-5.7-3.1-8.2-9.4-8.1-5.7.1-8.5 2-9.5 6.6-.8 3.5-3.1 4.6-5.2 2.5-3.2-3.2 2-11.8 8.3-13.7 4.6-1.3 10-1.1 14.1.5zm-117.5 57.6c3.3 2.3 3.8 2.3 3.8.5 0-2.4 4.1-3.1 5.7-1 2 2.7 1.4 18.1-.7 19.4-2.8 1.8-3.7.8-6.1-7-3.8-12.2-20.9-11.5-20.9.9 0 5.1 3.4 8.2 13.8 12.2 8.6 3.4 13.8 7.5 14.9 11.7.3 1.2.3 4.8.1 7.8-.8 9.6-8.4 15.1-19.4 14.2-3.4-.3-6.5-1.3-8.3-2.6-2.8-2.1-2.9-2.1-3.4-.2-.5 2.1-5.2 2.9-5.9 1-.1-.5-.2-5.2 0-10.4.3-8.6.5-9.6 2.4-10.2 2.5-.7 3.4.5 4.2 5.9.5 2.6 1.8 5.1 4 7.3 3 3 4.1 3.4 8.4 3.4 4.4 0 5.4-.4 7.6-3.1 1.9-2.2 2.6-4.2 2.6-7.3 0-5.3-3-8.3-11.5-11.6-14.4-5.6-17.5-8.7-17.5-17.3 0-8 3.5-12.8 11.2-15.2 5.2-1.7 11.3-1 15 1.6zm66.2 2.1c1.4 2.3-.3 5.2-3.3 5.6-4.2.6-6.7-3.8-3.9-6.6 1.7-1.7 5.8-1.1 7.2 1zm-25.1 15.2c3.4 2.4 3.5 2.4 4 .4.4-1.2 1.2-1.8 2.4-1.6 1.6.3 1.8 1.4 1.8 8.3 0 7.2-.2 8-1.9 8-1.4 0-2.3-1.2-3.4-4.3-1.5-4.5-5.8-8.2-9.5-8.2-10.1 0-16.1 15-10.8 26.7 4.4 9.6 17.4 9.8 20.3.2 2-6.9 6.7-6.4 5.4.5-2.1 11-16.5 15.8-26.4 8.7-9-6.4-10.4-25.8-2.4-35.3 5.2-6.1 14.2-7.6 20.5-3.4zm58.7-.6c4.5 2.2 7.6 7 9 13.8 1.7 8.3 1.5 8.4-15.6 8.4-13.8 0-14.4.1-14.4 2 0 3.9 2.9 9 6.2 11 7 4.3 15.4 1.7 17.8-5.5 1.3-3.8 4.5-4.9 5.7-1.8.9 2.4-3.5 10-7.1 12.2-6.5 3.9-15.5 3.4-22-1.2-8.6-6.1-9.3-28.7-1-35.8 5.9-5 15-6.4 21.4-3.1zm42.2-.7c1.3.6 3.2 2.2 4.3 3.7 1.8 2.4 2 4.6 2.3 17.9l.3 15.2 3.2.3c2.4.2 3.2.8 3.2 2.3 0 1.8-.8 2-9.8 2.3-9.8.3-9.8.3-9.5-2 .2-1.7 1.1-2.4 3.1-2.6l2.7-.3V550c0-7.1-.4-14-.9-15.3-1.3-3.3-6.2-5.2-10.3-4.1-5.7 1.7-7.3 6-7.3 19.9v12l3 .5c2.2.4 3 1.1 3 2.5 0 1.8-.8 2-9.7 2.3-9.1.3-9.8.1-9.8-1.7 0-2 1.8-3.1 5.1-3.1 1.9 0 1.9-.7 1.7-15.8l-.3-15.7-3.2-.3c-2.4-.2-3.3-.8-3.3-2.2 0-2.2 1.9-3 7.7-3 3.7 0 4.6.4 5 2 .5 1.9.7 1.9 2.2.6 3.8-3.4 12.6-4.7 17.3-2.5zm39.1 1.3c3.4 2.4 3.5 2.4 4 .4.4-1.2 1.2-1.8 2.4-1.6 1.6.3 1.8 1.4 1.8 8.3 0 7.2-.2 8-1.9 8-1.4 0-2.3-1.2-3.4-4.3-2.7-8.2-11.2-10.4-17.4-4.5-7.3 7-5.6 25.3 2.7 29.1 3.8 1.7 9 1.5 11.4-.6 1.2-.9 2.8-3.5 3.5-5.7 1-2.7 2-4 3.2-4 3.9 0 2.9 6.7-1.6 11.9-5.3 6-15.7 6.8-22.8 1.7-9.1-6.4-10.2-27-1.9-36 5.1-5.5 14.1-6.7 20-2.7zm39.6-.9c6.2 3.2 10.6 11.6 9.9 18.8l-.3 3.2-15.4.3-15.3.3.6 2.4c1.3 5.1 2.5 7.3 5.7 9.9 2.9 2.5 3.9 2.8 8.6 2.4 6-.5 8.7-2.4 10.3-7.4 1.2-3.6 4.3-4.7 5.4-1.8.6 1.6-1.3 6.7-3.6 9.5-5.4 6.5-17.2 7.3-25.2 1.6-4.2-3-6.9-9.9-7-17.7-.1-10.6 4-18.6 10.9-21.6 4-1.8 11.9-1.7 15.4.1zm-155.1 18.2l.2 18.2 2.8.3c1.9.2 2.7.9 2.7 2.3 0 1.8-.8 2-9.3 2.3-9.2.3-9.3.2-9-2 .2-1.7 1.1-2.4 3.3-2.8l3-.5v-31l-3.2-.3c-2.4-.2-3.3-.8-3.3-2.1 0-2.8 1-3.2 7-2.9l5.5.3.3 18.2zm29.6 38.9c.3.9.6 5.6.6 10.5v9l2.9-2.2c4-2.9 10.7-3.5 15.1-1.2 5.8 3 7 6.7 7 22.5V636h2.4c3.3 0 5.3 2.5 3.6 4.5-.9 1.1-3.3 1.5-9 1.5s-8.1-.4-9-1.5c-1.7-2 .4-4.5 3.7-4.5h2.5l-.4-13.9c-.4-16.2-1.2-18.1-8-18.1-8.9 0-10.8 3.6-10.8 19.8v11.9l3 .6c2.1.5 3 1.2 3 2.7 0 2.5-2.6 3.2-11.5 2.8-6.7-.3-7-.4-7-2.8 0-2 .6-2.6 2.8-2.8l2.7-.3v-48.8l-2.7-.3c-2-.2-2.9-.9-3.1-2.6-.3-2.1 0-2.2 5.6-2.2 4.5 0 6.1.4 6.6 1.6zm-73.6 6.6c.7.7 1.2 2.9 1.2 5v3.8h4.4c5.7 0 7.6.8 7.6 3s-1.9 3-7.6 3H235v14.9c0 12.3.3 15.2 1.6 16.5.8.9 1.9 1.6 2.3 1.6 1.3 0 3.2-2.6 4-5.7.9-3.6 4.4-3.9 4.9-.5.9 6.3-5 11.9-11.3 10.8-6.4-1.2-7-2.9-7.3-21.2l-.3-16.4h-2.8c-1.6 0-3.4-.7-4.1-1.5-1.8-2.1.4-4.5 4.1-4.5 2.8 0 2.9-.2 2.9-4.4 0-3.9.7-5.2 3.1-5.5.3-.1 1 .4 1.7 1.1zm46.6.4c.9.8 1.6 3.1 1.6 5 0 3.4.1 3.4 4.4 3.4 2.8 0 5.1.6 6.1 1.6 2.5 2.5.1 4.4-5.6 4.4H282v15.4c0 12.4.3 15.6 1.5 16.6 2 1.7 4.2-.2 5.3-4.4 1-3.7 4.7-4.9 5.7-1.7.8 2.8-1.8 8.6-4.9 10.6-3.3 2.2-9.1 1.4-12-1.5-1.9-1.9-2.1-3.5-2.4-18.5-.3-16.3-.4-16.5-2.6-16.5-1.2 0-3.1-.6-4.1-1.4-1.6-1.2-1.7-1.6-.6-3 .7-.9 2.6-1.6 4.2-1.6 2.8 0 2.9-.2 2.9-4.4 0-4 .7-5.2 3.2-5.5.4-.1 1.4.6 2.2 1.5zm-69.7 9.3c6.9 3.2 7.7 5.4 8.2 21.8.2 10.2.7 14.3 1.5 14.3.7 0 2.1.6 3.1 1.4 2.9 2.1.3 4.6-4.5 4.6-5.2 0-7-.8-7-3.2 0-1.8-.2-1.8-3 .6-6 5-15.2 4.6-20.7-.9-2.8-2.8-3.3-4-3.3-8.2 0-10.1 4.2-13.6 17.3-14.3l9.2-.5-.1-3.8c-.2-5.5-2.9-7.9-8.8-7.9-5.3 0-7.3 1.3-9.3 6-1.6 3.9-3.9 5-6 2.9-1.3-1.2-1.3-2.1-.4-5 2.8-8.5 14.1-12.2 23.8-7.8zm154-.4c2.1.9 4.6 2.3 5.7 3.3 3 2.7 5.6 9.3 5.6 14.4v4.7l-15.2.3-15.3.3.3 3c1 8 9.4 13.9 16.5 11.6 3.8-1.3 5.8-3.1 7.8-7.6 1.7-3.6 4.5-4.4 5.4-1.5.4 1.3-.2 3.6-1.7 6.3-5.1 9.3-19.7 11.4-28 4-7.6-6.7-8.1-26.6-1-34.7 2.4-2.7 9.1-5.6 13-5.6 1.8 0 4.9.7 6.9 1.5zm-145 57.6c2.4 1.1 4.3 2.6 4.3 3.2 0 .5.3.7.8.3.7-.7.8-1.1 1.1-3.7 0-.6 1.3-.9 2.9-.7l2.7.3.3 10.1c.2 7.7-.1 10.4-1.1 11.3-2 1.6-4.7.3-4.7-2.3-.1-3.7-3.6-10.2-6.9-12.5-8.8-6.3-20.5-1.7-24.6 9.8-1.8 5.2-2 18.7-.3 24.4 1.6 5.4 7.3 11.2 12.6 12.7 8.3 2.6 16.2-2.4 18.6-11.6 1.3-5.1 3.4-6.6 6.1-4.4 1.7 1.4 1.1 5.8-1.5 11-3.8 7.4-10.4 11-20.2 11-10.6-.1-17.4-4.5-22-14.5-1.9-4.2-2.3-6.7-2.3-16 0-12.1 1.8-18 7.3-23.9 6.2-6.6 18.3-8.7 26.9-4.5zm315.4-1.1c1.8 1 1.9 2.4 1.9 27.5v26.4l2.8.3c1.9.2 2.8.9 3 2.5.3 2.2 0 2.3-5.8 2.3-5.2 0-6.2-.3-6.8-2.1l-.8-2-1.9 2c-2.8 3.2-8.8 4.5-14.5 3.1-8.7-2.1-13.2-9.5-13.2-21.6 0-8.5 2.3-14.7 7.1-18.6 5.5-4.7 14.2-5 20.1-.8l3 2.1v-8c0-7.9-.1-8.1-2.4-8.1-1.3 0-2.9-.6-3.5-1.4-2.8-3.4 6-6.2 11-3.6zm51.4.4c3.2 2.3 1.2 4.6-4 4.6H578l.2 24.2.3 24.3 10.7.3 10.7.3.3-7.3c.3-7 .4-7.3 2.8-7.3s2.5.2 2.8 7.8l.3 7.7 2.7-.6c1.5-.4 3-1 3.5-1.4.4-.3.6-7.4.5-15.6l-.3-14.9-3.2-.3c-2.5-.2-3.3-.8-3.3-2.2 0-2.3 3-3.3 8.6-2.8l3.9.3.3 18.1.2 18.2 3.3.5c1.7.2 4.7.2 6.5-.1l3.2-.5-.2-15.6-.3-15.6-3.2-.3c-2.4-.2-3.3-.8-3.3-2.2 0-1 .7-2.1 1.6-2.4 3-1.2 10.1-.6 11.4.9 1 1.2 1.7 1.2 4.8-.5 6.8-3.7 15.8-2.1 19.2 3.5 1.8 2.9 2 4.9 2 17.8v14.6l3.3.3c2.4.2 3.2.8 3.2 2.3 0 1.8-.8 2-9.7 2.3-9.3.3-9.8.2-9.8-1.8 0-1.5.8-2.2 3-2.7l3-.6v-12.6c0-15-.4-16.7-4.1-18.6-4.1-2.2-6.5-1.8-10.1 1.4l-3.3 2.9-.3 13.5-.4 13.6 2.9.3c2 .2 2.9.9 3.1 2.5l.3 2.2-40.6.1h-40.6l.3-2.3c.2-1.8 1-2.3 4.1-2.5l3.7-.3v-48.8l-3.7-.3c-3-.2-3.9-.8-4.1-2.5-.4-2.7.9-3 11.9-3.2 5.7-.1 9.1.3 10.4 1.3zm32.9 2.8c1.4 2.3-.3 5.2-3.3 5.6-4.2.6-6.7-3.8-3.9-6.6 1.7-1.7 5.8-1.1 7.2 1zm-352.9 16.3c13.9 10.5 9.7 36.6-6.4 40.5-13.1 3.1-23.3-6.5-23.3-21.9 0-10.3 3.2-16.3 10.4-20.1 5.9-2.9 14.4-2.3 19.3 1.5zm42.2-.3l2.5 2.5 2.5-2.3c5-4.7 14.7-4.3 19.3.6 3.5 3.7 4 6.5 4 21.6v12.3l2.8.3c1.9.2 2.8.9 3 2.5.3 2.2.1 2.3-9.2 2.3-9 0-9.6-.1-9.6-2 0-1.5.9-2.2 3-2.7l3-.6v-12.8c0-7.4-.5-13.9-1.1-15.3-2.4-5.2-10.1-5.7-13.9-.9-1.8 2.3-2 4.1-2 15.8v13.2l3.1.7c2.2.4 3 1.1 2.7 2.3-.3 1.5-1.7 1.8-9.6 2.1-9.2.3-9.3.2-9-2 .2-1.7 1.1-2.4 3.1-2.6l2.7-.3v-27.1l-2.9-2.9c-3.2-3.2-4.7-3.5-8.5-1.7-5 2.2-6 5.2-6.4 19l-.4 12.8h2.5c2.7 0 5.2 2.3 4.2 4-.3.6-4.6 1-10.1 1-8.6 0-9.4-.2-9.4-1.9 0-2 1.8-3.1 5.1-3.1 1.9 0 1.9-.7 1.7-15.8l-.3-15.7-3.2-.3c-2.5-.2-3.3-.8-3.3-2.2 0-2.3 3-3.3 8.6-2.8 3.1.2 3.9.7 4.4 2.8.4 1.9.7 2.1 1.2.9 2-5.2 14.9-6.3 19.5-1.7zm69.3.3c1.7 1.6 3 2.3 3 1.7 0-1.8 7.6-5.2 11.7-5.2 2.1 0 5.3.9 7.1 2 5.1 3.2 6.2 7 6.2 22.5V710h2.4c2.6 0 5.1 2.4 4.1 4-.3.6-4.6 1-10.1 1-8.8 0-9.4-.1-9.4-2 0-1.5.9-2.2 3-2.7l3-.6v-12.8c0-7.4-.5-13.9-1.1-15.3-1.7-3.6-6.1-5.2-9.9-3.6-5 2.1-6 5.3-6 19.4v12.5l2.8.3c1.9.2 2.7.9 2.7 2.3 0 1.8-.8 2-9.3 2.3-9.2.3-9.3.2-9-2 .2-1.7 1.1-2.4 3.1-2.6l2.7-.3v-27.1l-2.9-2.9c-3.2-3.1-4.7-3.5-8.4-1.8-4.7 2.1-6.1 6.3-6.5 19.6l-.4 12.2 3.3.3c2.6.2 3.4.8 3.4 2.3 0 1.8-.8 2-9.7 2.3-9.1.3-9.8.1-9.8-1.7 0-2 1.8-3.1 5.1-3.1 1.9 0 1.9-.7 1.7-15.8l-.3-15.7-3.2-.3c-2.5-.2-3.3-.8-3.3-2.2 0-2.3 3-3.3 8.6-2.8 3.1.2 3.9.7 4.4 2.8.4 1.9.7 2.1 1.2.9 1.1-2.8 6.9-5 12.1-4.6 3.6.3 5.5 1.1 7.7 3.2zm61.9-1.7c6.7 3.4 7.5 5.6 7.9 21.8.4 13.1.6 14.4 2.3 14.4 1 0 2.1.5 2.4 1 .4.7 1.2.7 2.5 0 1-.5 2.8-1 4-1 2 0 2-.4 1.8-15.8l-.3-15.7-3.2-.3c-2.4-.2-3.3-.8-3.3-2.2 0-2.2 1.9-3 7.7-3 3.6 0 4.6.4 5 2 .5 1.9.6 1.8 3.5-.3 2.3-1.7 4.3-2.2 9.4-2.2 5.9 0 6.6.3 9.6 3.3l3.3 3.2.3 15.5c.3 15.4.4 15.5 2.6 15.5 2.7 0 5.1 2.4 4.1 4-.3.6-4.6 1-10.1 1-8.8 0-9.4-.1-9.4-2 0-1.5.9-2.2 3.1-2.7l3-.6-.3-14.4c-.3-13.1-.5-14.6-2.3-15.9-3.1-2.3-6.3-2.7-9.6-1.4-5 2.1-6.3 5.9-6.7 19.7l-.4 12.2 3.3.3c2.6.2 3.4.8 3.4 2.3 0 1.9-.7 2-16.2 2.2-15.6.2-16.3.2-16.3-1.7 0-1.8-.2-1.8-3.6.5-4.6 3.1-9 3.9-14.2 2.6-5.8-1.6-9.2-6-9.2-11.9 0-10 4.3-13.5 17.3-14.2l9.2-.5-.1-3.8c-.1-2-.9-4.6-1.9-5.7-4.5-4.9-14.7-3-16.3 3.1-1.1 4.3-3.6 5.9-5.8 3.7-3.3-3.3 1.8-11.8 8.2-13.8 4.9-1.4 11.7-1.1 15.3.8zm257.8.2c5 2.2 7.8 6.4 9.3 13.6 1.8 8.5 2 8.4-15.1 8.4-14.3 0-14.9.1-14.9 2 0 7.1 5.9 13 12.9 13 5.6 0 8.6-1.9 10.9-6.8 2.3-4.9 5.8-5.2 5.6-.5-.4 8.8-11.4 15-21.6 12.2-9.7-2.6-14-9.1-14-21.3 0-11.1 3.2-17.3 10.7-20.7 5.1-2.4 10.9-2.4 16.2.1zm35.3 70c0 .7-92 1-274 1s-274-.3-274-1 92-1 274-1 274 .3 274 1zm-519.4 18.5c1.9 1.5 1.8 1.6-2.6 1.8-2.3.2-2.5.6-2.5 4.7 0 4.2.2 4.5 2.7 4.5 3.9.1 4.5 1.2 1.5 2.6-2.2 1-3.1.9-5.2-.5s-2.5-2.4-2.5-6.6c0-3.9.4-5.2 2.2-6.4 2.8-2 3.9-2 6.4-.1zm27.8-.9c2.4.9 2 3.3-.4 2.7-2.7-.7-5 1.4-5 4.6 0 2.9 1.6 5.1 3.7 5.1 1.9 0 1.6-2.1-.4-3.6-1.7-1.2-1.7-1.3 0-1.9 3-1.2 4.7.2 4.7 3.9 0 2.8-.4 3.5-2.5 4-2.5.7-6.4-.7-7.7-2.8-.4-.6-.8-2.8-.8-4.8 0-2.8.6-4.2 2.6-5.7 2.9-2.3 3.4-2.4 5.8-1.5zm242 0c2.7 1 2 3.5-.8 2.8-3.6-.9-4.1 1.3-.6 3.1 2.3 1.2 3 2.2 3 4.5 0 3.8-3.5 5.9-6.9 4.1-2.8-1.5-1.9-3 1.4-2.3 3.3.6 3.4-2.4.1-3.9s-3.9-4.6-1.5-7c2-2 2.8-2.2 5.3-1.3zm60.3.9c6.9 4.8.8 17.7-6.2 13.1-2.1-1.4-2.5-2.4-2.5-6.6 0-3.9.4-5.2 2.2-6.4 2.8-2 3.8-2 6.5-.1zm13 0c6.9 4.8.8 17.7-6.2 13.1-2.1-1.4-2.5-2.4-2.5-6.6 0-3.9.4-5.2 2.2-6.4 2.8-2 3.8-2 6.5-.1zm20.7-.9c2.7 1 2 3.5-.8 2.8-3.6-.9-4.1 1.3-.6 3.1 5.7 2.9 2.8 10.9-3.3 8.9-1.2-.4-4.3-.6-6.9-.5l-4.8.2v-7c0-5.6.3-7.1 1.5-7.1s1.5 1.3 1.5 5.9c0 5.8 0 5.9 3 6.3 1.7.3 3.3.2 3.5-.2.3-.4 1.6-.5 3-.2 3.3.6 3.4-2.4.1-3.9s-3.9-4.6-1.5-7c2-2 2.8-2.2 5.3-1.3zM193 763c0 .5-1.1 1-2.5 1-1.8 0-2.5.5-2.5 2 0 1.3.7 2 2 2 1.1 0 2 .4 2 1 0 .5-.9 1-2 1-1.6 0-2 .7-2 3 0 2-.5 3-1.5 3-1.2 0-1.5-1.4-1.5-7v-7h4c2.2 0 4 .4 4 1zm8.9 5.2c1.2 3.4 2.1 6.6 2.1 7 0 1.4-2.8.9-3.4-.7-.3-.8-1.5-1.5-2.6-1.5s-2 .7-2 1.5-.7 1.5-1.5 1.5-1.5-.4-1.5-.8c0-1.1 3.1-11.5 3.7-12.5 1.3-2.2 3.3 0 5.2 5.5zm17.1.8c0 5.6-.3 7-1.5 7s-1.5-1.4-1.5-7 .3-7 1.5-7 1.5 1.4 1.5 7zm7.7-2.8l2.2 4.3v-4.3c.1-3 .5-4.2 1.4-4 .7.3 1.3 2.9 1.5 7.1.3 6 .1 6.7-1.6 6.7-1.1 0-2.6-1.6-3.9-4.3l-2.2-4.2v4.2c-.1 3.1-.5 4.3-1.6 4.3-1.2 0-1.5-1.4-1.5-7 0-6.1.2-7 1.8-7 1.1 0 2.6 1.6 3.9 4.2zM260 763c0 .5-.9 1-2 1-1.8 0-2 .7-2 6 0 4.7-.3 6-1.5 6s-1.5-1.3-1.5-6-.3-6-1.5-6c-.8 0-1.5-.5-1.5-1 0-.6 2.3-1 5-1 2.8 0 5 .4 5 1zm4 1.5c0 2 .5 2.5 2.5 2.5s2.5-.5 2.5-2.5c0-1.6.6-2.5 1.5-2.5 1.2 0 1.5 1.4 1.5 7s-.3 7-1.5 7c-1 0-1.5-1-1.5-3 0-2.5-.4-3-2.5-3s-2.5.5-2.5 3c0 2-.5 3-1.5 3-1.2 0-1.5-1.4-1.5-7s.3-7 1.5-7c.9 0 1.5.9 1.5 2.5zm18-1.5c0 .5-1.1 1-2.5 1-1.6 0-2.5.6-2.5 1.5 0 .8.9 1.5 2 1.5s2 .7 2 1.5-.9 1.5-2 1.5c-1.3 0-2 .7-2 2 0 1.5.7 2 2.5 2 1.4 0 2.5.4 2.5 1 0 .5-1.8 1-4 1h-4v-14h4c2.2 0 4 .4 4 1zm15.5 0c.4.6-.7 1-2.4 1-2.4 0-3.1.4-3.1 2 0 1.5.7 2 2.5 2 1.4 0 2.5.4 2.5 1 0 .5-1.1 1-2.5 1-2.1 0-2.5.5-2.5 3 0 2-.5 3-1.5 3-1.2 0-1.5-1.4-1.5-7v-7h3.9c2.2 0 4.3.4 4.6 1zm4.5 4.5c0 4.2.4 5.7 1.6 6.2 2.3.8 3.4-1.4 3.4-7 0-5.4 2.2-6.3 2.8-1.2 1 8.4-3.1 13.5-8.3 10.1-2.2-1.5-2.5-2.3-2.5-7.6 0-4.7.3-6 1.5-6s1.5 1.3 1.5 5.5zm19-4.5c0 .5-.9 1-2 1-1.8 0-2 .7-2 6 0 4.7-.3 6-1.5 6s-1.5-1.3-1.5-6-.3-6-1.5-6c-.8 0-1.5-.5-1.5-1 0-.6 2.3-1 5-1 2.8 0 5 .4 5 1zm4 4.5c0 4.2.4 5.7 1.6 6.2 2.3.8 3.4-1.4 3.4-7 0-5.4 2.2-6.3 2.8-1.2 1 8.4-3.1 13.5-8.3 10.1-2.2-1.5-2.5-2.3-2.5-7.6 0-4.7.3-6 1.5-6s1.5 1.3 1.5 5.5zm17.6 0c0 2.7.4 5.8.8 6.7.6 1.3.4 1.8-.8 1.8-.9 0-2.2-1.1-2.8-2.5-.6-1.4-1.5-2.5-2-2.5-.4 0-.8 1.1-.8 2.5 0 1.6-.6 2.5-1.5 2.5-1.2 0-1.5-1.5-1.5-7.1v-7l4.3.3 4.2.3.1 5zM354 763c0 .5-1.1 1-2.5 1-1.6 0-2.5.6-2.5 1.5 0 .8.9 1.5 2 1.5s2 .7 2 1.5-.9 1.5-2 1.5c-1.3 0-2 .7-2 2 0 1.5.7 2 2.5 2 1.4 0 2.5.4 2.5 1 0 .5-1.8 1-4 1h-4v-14h4c2.2 0 4 .4 4 1zm9.4.6c.3.9.6 2.5.6 3.5 0 2.9 1.6 1.4 2.3-2.1.9-4.5 3.4-3.8 4.5 1.2l.9 4.3.7-4.3c.5-2.7 1.3-4.2 2.3-4.2 1.1 0 1.3.7.8 3.2-1.6 7.9-2.7 10.8-3.9 10.8-.8 0-1.8-1.7-2.3-3.8l-1-3.7-1 3.5c-1.6 5.8-3.9 5.1-5.3-1.7-.7-3.1-1.5-6.3-1.7-7-.3-.7.2-1.3 1-1.3s1.8.7 2.1 1.6zM380 769c0 5.6-.3 7-1.5 7s-1.5-1.4-1.5-7 .3-7 1.5-7 1.5 1.4 1.5 7zm12-6c0 .5-.9 1-2 1-1.8 0-2 .7-2 6 0 4.7-.3 6-1.5 6s-1.5-1.3-1.5-6-.3-6-1.5-6c-.8 0-1.5-.5-1.5-1 0-.6 2.3-1 5-1 2.8 0 5 .4 5 1zm4 1.5c0 1.8.5 2.5 2 2.5s2-.7 2-2.5c0-1.6.6-2.5 1.5-2.5 1.2 0 1.5 1.4 1.5 7s-.3 7-1.5 7c-1 0-1.5-1-1.5-3 0-2.3-.4-3-2-3s-2 .7-2 3c0 2-.5 3-1.5 3-1.2 0-1.5-1.4-1.5-7s.3-7 1.5-7c.9 0 1.5.9 1.5 2.5zm24-1.5c0 .5-.9 1-2 1-1.8 0-2 .7-2 6 0 4.7-.3 6-1.5 6s-1.5-1.3-1.5-6-.3-6-1.5-6c-.8 0-1.5-.5-1.5-1 0-.6 2.3-1 5-1 2.8 0 5 .4 5 1zm4 6c0 5.6-.3 7-1.5 7s-1.5-1.4-1.5-7 .3-7 1.5-7 1.5 1.4 1.5 7zm7.5-2l1.1 4.5 1.3-4.8c1-3.4 1.9-4.7 3.2-4.7 1.7 0 1.9.8 1.9 7 0 5.6-.3 7-1.5 7-1 0-1.5-1-1.6-2.8l-.1-2.7-1 2.7c-1.3 3.8-3.5 3.5-4.7-.5l-.9-3.2-.1 3.2c-.1 2.2-.6 3.3-1.6 3.3-1.2 0-1.5-1.5-1.5-7.1 0-6.7.1-7 2.2-6.7 1.7.2 2.5 1.3 3.3 4.8zm18.5-4c0 .5-1.3 1-3 1-3.6 0-4.2 2.7-.7 3.2 2.7.4 2.6 2.2-.3 2.6-1.2.2-2 1.1-2 2.3 0 1.4.7 1.9 3 1.9 1.7 0 3 .4 3 1 0 .5-2 1-4.5 1H441v-14h4.5c2.5 0 4.5.4 4.5 1zm15 0c0 .5-.7 1-1.5 1-1.2 0-1.5 1.3-1.5 6s-.3 6-1.5 6-1.5-1.3-1.5-6c0-5.3-.2-6-2-6-1.1 0-2-.5-2-1 0-.6 2.3-1 5-1 2.8 0 5 .4 5 1zm10 0c0 .5-1.1 1-2.5 1-1.6 0-2.5.6-2.5 1.5 0 .8.9 1.5 2 1.5s2 .7 2 1.5-.9 1.5-2 1.5c-1.3 0-2 .7-2 2 0 1.5.7 2 2.5 2 1.4 0 2.5.4 2.5 1 0 .5-1.8 1-4 1h-4v-14h4c2.2 0 4 .4 4 1zm21 0c0 .5-.7 1-1.5 1-1.2 0-1.5 1.3-1.5 6s-.3 6-1.5 6-1.5-1.3-1.5-6c0-5.3-.2-6-2-6-1.1 0-2-.5-2-1 0-.6 2.3-1 5-1 2.8 0 5 .4 5 1zm10 0c0 .5-1.3 1-3 1-3.6 0-4.2 2.7-.7 3.2 2.7.4 2.6 2.2-.3 2.6-1.2.2-2 1.1-2 2.3 0 1.4.7 1.9 3 1.9 1.7 0 3 .4 3 1 0 .5-2 1-4.5 1H497v-14h4.5c2.5 0 4.5.4 4.5 1zm11 .5c.7.9 1.3 3.3 1.3 5.5 0 5.2-1.7 7-6.4 7H508v-14h3.9c2.2 0 4.4.6 5.1 1.5zm17-.5c0 .5-.9 1-2 1-1.8 0-2 .7-2 6 0 4.7-.3 6-1.5 6s-1.5-1.3-1.5-6-.3-6-1.5-6c-.8 0-1.5-.5-1.5-1 0-.6 2.3-1 5-1 2.8 0 5 .4 5 1zm-78.2 6.1c-.2.6-.7 1-1.1 1-.4-.1-1.4-.1-2.2-.1-.8 0-1.5-.5-1.5-1 0-.6 1.2-1 2.6-1 1.4 0 2.4.5 2.2 1.1z"/><path d="M429 90.4c0 .2.7.7 1.6 1 .8.3 1.2.2.9-.4-.6-1-2.5-1.4-2.5-.6zM437 101.7c0 1.3 1.3 2.7 3.5 3.9 1.1.7 1.9 1.9 1.9 2.8-.1.9.2 1.6.7 1.6 1.8 0 .8-2.9-1.6-4.8-1.4-1.1-2.5-2.5-2.5-3.1 0-.6-.4-1.1-1-1.1-.5 0-1 .3-1 .7zM419.2 193.7c-.6.2-1 .9-.6 1.4.8 1.4 2.1 1.1 2.1-.6 0-.8-.1-1.5-.1-1.4-.1 0-.7.3-1.4.6zM588 391.4c0 .2.7.7 1.6 1 .8.3 1.2.2.9-.4-.6-1-2.5-1.4-2.5-.6zM626 413.5c0 .5.5 1.7 1 2.5s1 1 1 .5c0-.6-.5-1.7-1-2.5s-1-1.1-1-.5zM611.5 415c-.9 1.5-.1 2.3 2.1 1.8 1.5-.3 1.6-.4.1-1.6-1.1-.9-1.7-1-2.2-.2zM617.1 420.6c0 1.1.3 1.4.6.6.3-.7.2-1.6-.1-1.9-.3-.4-.6.2-.5 1.3zM623.5 422c-1.8 2-1.6 3.8.3 2.6.8-.5 2.4-4.6 1.8-4.6-.2 0-1.1.9-2.1 2zM643.1 438.6c0 1.1.3 1.4.6.6.3-.7.2-1.6-.1-1.9-.3-.4-.6.2-.5 1.3zM621.1 491.6c0 1.1.3 1.4.6.6.3-.7.2-1.6-.1-1.9-.3-.4-.6.2-.5 1.3zM606.1 519.6c0 1.1.3 1.4.6.6.3-.7.2-1.6-.1-1.9-.3-.4-.6.2-.5 1.3zM621.2 539c0 1.4.2 1.9.5 1.2.2-.6.2-1.8 0-2.5-.3-.6-.5-.1-.5 1.3zM644.1 543c0 .8.4 2.4.9 3.5.5 1.3.9 1.4.9.5 0-.8-.4-2.4-.9-3.5-.5-1.3-.9-1.4-.9-.5zM623.1 552.6c0 1.1.3 1.4.6.6.3-.7.2-1.6-.1-1.9-.3-.4-.6.2-.5 1.3zM617.6 571.3c.3 1 .9 1.5 1.2 1.2.3-.3 0-1.1-.7-1.8-1-.9-1.1-.8-.5.6zM686.2 579c0 .8.6 3.1 1.3 5 .7 1.9 1.3 2.8 1.3 2 0-.8-.6-3.1-1.3-5-.7-1.9-1.3-2.8-1.3-2zM646.1 586.6c0 1.1.3 1.4.6.6.3-.7.2-1.6-.1-1.9-.3-.4-.6.2-.5 1.3zM690 586.6c0 .8.5 1.2 1 .9.6-.3 1-1 1-1.6 0-.5-.4-.9-1-.9-.5 0-1 .7-1 1.6zM621.1 587.6c0 1.1.3 1.4.6.6.3-.7.2-1.6-.1-1.9-.3-.4-.6.2-.5 1.3zM657.1 589.6c0 1.1.3 1.4.6.6.3-.7.2-1.6-.1-1.9-.3-.4-.6.2-.5 1.3zM648.2 591.5c0 1.6.2 2.2.5 1.2.2-.9.2-2.3 0-3-.3-.6-.5.1-.5 1.8zM199 464.5V489h5.8c8.2 0 13.1-1.7 17.3-5.9 9.1-9 8.9-29.2-.3-37.8-3.7-3.5-9.2-5.3-16.3-5.3H199v24.5zM251.3 475c-4.4 1.8-5.8 9-2.5 13 2.1 2.6 8.6 3 12.1.8 2.6-1.6 4.8-6.2 5.3-10.8l.3-3.5-6.5-.2c-3.6-.1-7.5.2-8.7.7zM314.4 476.3c-3.5 3.1-3.9 8.7-.7 11.8 2.4 2.5 8.8 2.8 12.2.7 2.6-1.6 4.8-6.2 5.3-10.8l.3-3.5-7.1-.3c-6.4-.3-7.5 0-10 2.1zM298.4 531.4c-3.2 1.4-6.4 6.7-6.4 10.5 0 2 .5 2.1 11.5 2.1 10.9 0 11.5-.1 11.5-2 0-2.7-2.2-7-4.8-9.3-2.6-2.4-8-3-11.8-1.3zM420.2 531.5c-2.2 1-3.9 2.8-5.2 5.7-3.2 6.9-3.4 6.8 10 6.8 11.4 0 12-.1 12-2 0-2.7-2.2-7-4.8-9.3-2.7-2.5-8-3-12-1.2zM198 621.7c-5.7 2.2-7.8 8.9-4.1 13.4 1.4 1.8 2.8 2.3 5.8 2.3 2.2-.1 4.9-.6 6-1.2 2.5-1.4 5-6.5 5.5-11.2l.3-3.5-6-.2c-3.3-.1-6.7.1-7.5.4zM355.3 604.2c-3.2.8-8.3 5.9-8.3 8.3 0 .7-.3 2-.6 2.9-.5 1.4.9 1.6 11.5 1.6 11.5 0 12.1-.1 12.1-2 0-1.2-.6-3.3-1.4-4.8-2.9-5.6-7.3-7.6-13.3-6zM514.5 677.9c-9.4 4.1-11.5 22.3-3.5 30.3 2.3 2.2 3.8 2.8 7.2 2.8 8.1 0 11.8-5.1 11.8-16.5 0-10.4-3.4-16.1-10.1-17-1.9-.3-4.3-.1-5.4.4zM251.5 678c-9.4 3.9-11.5 22.1-3.5 30.2 2.3 2.2 3.7 2.8 7.3 2.8 8.1 0 12.7-6 12.7-16.7 0-12-7.9-19.9-16.5-16.3zM429.6 695c-5.8.7-8.6 3.6-8.6 8.6 0 4.8 2.9 7.4 8.4 7.4 3.3 0 4.9-.6 7-2.6 1.4-1.5 2.6-2.9 2.6-3.3.1-.3.5-2.5.9-4.9.5-2.3.6-4.4.2-4.6-1.7-.9-6.1-1.2-10.5-.6zM685 678.2c-3.1 1.7-7 7.4-7 10.4 0 2.4.1 2.4 11.5 2.4 10.9 0 11.5-.1 11.5-2 0-7.8-9.5-14.2-16-10.8zM538.4 765.4c-1.1 2.9.1 8.1 1.8 8.4 2.4.5 4.1-3.9 2.8-7.3-1-2.7-3.7-3.4-4.6-1.1zM551.4 765.4c-1.1 2.9.1 8.1 1.8 8.4 2.4.5 4.1-3.9 2.8-7.3-1-2.7-3.7-3.4-4.6-1.1zM197.6 768.5c-.3.8-.1 1.5.4 1.5.6 0 1-.7 1-1.5s-.2-1.5-.4-1.5-.6.7-1 1.5zM337 765.9c0 1.2.6 2.1 1.6 2.1.9 0 1.4-.7 1.2-1.7-.5-2.5-2.8-2.8-2.8-.4zM511 769c0 2.7.2 5 .4 5 2.4 0 3.6-1.7 3.6-5s-1.2-5-3.6-5c-.2 0-.4 2.2-.4 5zM317.3 75.9l-3.2 1.8 3.5 1.6c1.9 1 4.5 1.7 5.7 1.7 2-.1 2.1-.2.5-1.4-2.1-1.5-2.4-4.2-.5-4.9.6-.3.3-.6-.8-.6s-3.4.8-5.2 1.8zM308.6 78.5c-.8.8-2.3 1.5-3.3 1.6-1.3 0-1.4.2-.3.5 9 2.9 20.9 10.2 18.8 11.6-.9.5-.6.8.9.8 3.2 0 3.8-1.9.9-3-1.5-.5-4.6-2.9-7-5.4-2.5-2.4-5.5-4.7-6.7-5.1-1.7-.6-1.9-.9-.8-1.6.9-.6 1-.9.2-.9-.6 0-1.8.7-2.7 1.5z"/><path d="M300.8 82.3c-.7.8-2.4 1.9-3.6 2.6-1.2.7-2 1.6-1.7 2.2.4.5.1.8-.7.7-.7-.2-1.4.8-1.6 2.2-.2 1.7-1.6 3.2-4.5 4.9-10.2 5.8-26.2 20.9-35.4 33.4-11.5 15.7-18.8 38.9-15.2 48.4l1 2.8 5.2-5.6c13.3-14.5 32.8-25 56.8-30.9 13.9-3.3 16.4-3.6 15.3-1.8-.4.7-.3.8.5.4.6-.4.9-1.1.6-1.6-.3-.4 1.9-1 4.7-1.3 2.9-.3 8.7-1.2 12.8-2.1 4.1-.9 9.1-1.5 11-1.2 1.9.2 4.4.1 5.5-.3 1.2-.5 2.5-.3 3.3.5.9.9 2.7 1.2 5.7.7 2.4-.3 5.2-.2 6.2.2 1 .5 2 .9 2.3.9.3.1 1.6.9 3 1.8 1.8 1.3 4.5 1.7 9.8 1.6 4.2-.1 6.7-.5 6-1-.8-.5.1-.7 2.4-.6 2 .1 4.2-.3 5-.9.7-.5 2.5-1.3 4.1-1.7 1.5-.3 2.7-1.1 2.7-1.7 0-.6.5-.7 1.2-.3.7.5.9.2.6-.7-.3-.8 0-2.3.7-3.3 1.6-2.1.3-7.5-2-8.9-.9-.4-1.3-1.2-1-1.8.4-.5-.3-.9-1.4-.9-1.2 0-2.1-.5-2.1-1 0-.6-.8-1-1.7-1-1.5 0-1.6.2-.3 1 .8.5 1.2 1.2.8 1.5-.3.3-1.2-.1-2.1-.9-.8-.8-1.8-1.2-2.1-.8-.4.3-1.1 0-1.6-.7-.7-1.2-1.1-1.1-2.6.3-1.4 1.4-1.5 1.9-.4 2.6.7.4 1.9.6 2.7.3.7-.3 1.3 0 1.3.6s.6.8 1.4.5c.8-.3 1.7-.1 2 .4.4.6-1.4.9-4.4.8-4.6-.1-5 0-5 2.1 0 1.3-.4 2.3-1 2.3-.5 0-.9-1.1-.8-2.5.1-1.4.6-2.5 1-2.5s.8-.7.8-1.5c0-.9-.9-1.5-2.2-1.5-1.9 0-2 .2-.8 1 1.3.8 1.3 1-.1 1-1.7 0-1.8 2.5-.4 7 .6 1.9.5 2-1.3.9-1.1-.7-1.7-1.9-1.5-2.8.2-.9-.3-2.5-1.2-3.6-.8-1.1-1.5-1.6-1.4-1 .3 2.4-.2 3.5-1.6 3.5-.8 0-1.5-.4-1.5-.8s-1.2-.7-2.7-.6c-4 .2-4.3.3-4.3 1.4 0 .5.7.7 1.6.3 1.2-.4 1.5-.1 1.2 1.3-.2 1.4-1 1.8-2.9 1.6-2.2-.3-2.6.1-2.5 2 .1 1.4.8 2.4 2 2.6 1 .2 1.6 0 1.3-.5-.4-.5 0-1 .8-1 .7 0 1.3.7 1.2 1.6-.1 1.1-1.1 1.6-3.4 1.7-1.9 0-2.9-.3-2.2-.6 1.4-.9-2.8-2.1-4.6-1.3-.8.2-1.1 1.2-.8 2.1.7 1.8.5 1.7-1.7-1.2-1-1.3-1-1.7-.2-1.2.6.4 1.2.3 1.2-.2s-.9-1.2-2-1.5c-1.1-.3-1.8-.1-1.5.3.3.4-.4.6-1.5.3s-2.3-1-2.7-1.6c-.4-.6 0-.8 1-.4.9.3 1.9.2 2.2-.3.4-.6-.1-1-1-1-1 0-1.3-.5-.9-1.1.4-.7.7-2.1.8-3.3.1-1.5.9-2.2 2.6-2.4 2-.2 2.2-.1 1 .8-1.2.8-1 .9 1 .6 1.4-.3 2.7-.5 3-.6.3-.1-1.1-.8-3-1.6l-3.5-1.4 3.3.3c1.7.2 3.2 0 3.2-.5 0-.4-1.3-.8-2.9-.8-3.6 0-4.4-1.9-1.7-4.1 1.9-1.5 1.8-1.6-1.4-1.1-2.8.4-3.2.2-2.7-1.2.5-1.2 0-1.6-2.1-1.5-1.5 0-2.1.3-1.4.6.6.2 1.2.9 1.2 1.4 0 .5-5.1.9-11.7.8-11.9-.2-22.6 1.3-27.5 3.7-1.5.8-3.4 1.4-4.3 1.4-1.6 0-16.5 6.8-16.5 7.5 0 .4 1.9.1 4.8-.9 1.2-.4 2.2-1.1 2.2-1.5 0-.9 8.8-3.6 10.3-3.2.5.1 2.3-.7 4-1.7 4.2-2.5 19.5-4.5 31.5-4l9.2.3-1.8 3.5c-1.8 3.4-1.9 6.6-.2 5.5.5-.3.6-1.3.3-2.2-.4-1-.2-1.4.4-1 .6.4 1.4.1 1.7-.5.3-.7.3 0 0 1.7-.7 3.9-3.4 9.5-4.5 9.5-.5 0-.9-.5-.9-1 0-.7-.6-.7-1.9 0-2.5 1.3-5.1 1.3-5.1-.1 0-.5.6-.7 1.3-.3.9.5.9.4 0-.6-.9-.9-1.5-.8-3.1.8-1.1 1.1-1.8 2.2-1.6 2.5.3.2-1.5.1-3.8-.3-4.1-.8-6.5-.5-3.7.4 3.9 1.2 4 1.6.6 1-2.1-.3-4.6-.7-5.5-1-.9-.3-.6.2.8 1 3.3 2 .5 2.1-4.3.1-5.2-2.2-6.9-1.8-2.2.4 4.8 2.3 3.3 2.7-1.8.6-5-2.1-5.8-1.9-2.2.5 3.4 2.3 2.3 2.7-1.5.5-1.4-.8-3.2-1.4-4-1.4-.8 0-.3.7 1.3 1.5 4.3 2.3 3.2 2.6-2.3.4s-6.6-1.9-2.2.4c3.5 2 1 2.1-2.8.1-1.6-.8-3-1.1-3.2-.5-.2.5-1.4 1.1-2.8 1.2-3.4.4-5.1 2-3.8 3.5.7.9.7 1.3 0 1.3-.6 0-1.4-.5-1.7-1-.4-.6-1.5-.8-2.5-.5-1.2.4-2.2-.1-2.9-1.2-.5-1-1.2-1.5-1.5-1.2-.3.3.6 1.7 2 3.2 3 3.3 2 3.6-1.4.4-2.4-2-2.5-2.1-1.8-.2.6 1.6.5 1.8-.5.7-2.1-2-3.3-1.4-1.4.8 1 1.1 1.3 2 .7 2-.6 0-1.2-.5-1.4-1.2-.3-.8-.9-.8-2.4 0s-2.3.7-3.9-.6c-1.1-.9-1.4-1-.7-.2 1.8 2.1 1.5 3.5-.5 1.9-.9-.8-1.4-.9-1-.3.7 1.2-4.3 2.8-7.5 2.5-.9-.1-2 .4-2.4 1-.5.9-.2 1 .9.6 2.5-.9 2.1-.2-.9 1.8-1.5.9-2.3 1.2-2 .6.4-.6.2-1.1-.5-1.1-1.3 0 6.2-7.5 10.6-10.5 1.6-1.1 4.3-3.2 6-4.6 1.6-1.4 4.1-3.3 5.5-4.2 1.5-1.1 1.9-1.7 1-1.7-.8 0-4 2-7 4.5s-6 4.5-6.7 4.5c-1.7 0-11.6 9.1-17.5 16-2.6 3-5.9 7.9-7.3 10.7-1.4 2.9-2.6 5.3-2.9 5.3-.2 0-.3-2.5-.3-5.5.1-3 .4-5.5.8-5.5s.6-.8.4-1.8c-.1-.9.4-2.9 1.2-4.5.7-1.5 1.1-2.7.8-2.7-.3 0 .9-2.6 2.7-5.8 1.7-3.1 3.8-6.9 4.6-8.5.7-1.5 1.8-2.5 2.3-2.2.5.4.9-.1.9-1.1 0-3.1 15.3-19.4 22.5-24 3.9-2.4 5.2-3.4 8.1-6.1 1.3-1.2 2.4-1.9 2.4-1.5 0 .4.4.2.8-.3.7-1.1 5.9-3.8 7.7-4.1.6-.1 1.9-.3 3-.4 1.6-.1 1.5-.4-1-1.5-2.7-1.3-2.7-1.4-.7-1.5 1.2 0 2.2-.5 2.2-1 0-1.2 3.7-1.3 4.2-.1.2.4 3.4 1.1 7.1 1.5 5.2.5 6.7.4 6.1-.5-.5-.9-.2-1 1-.6.9.4 1.5.3 1.2-.1-.3-.4-2.7-.7-5.5-.6-3.2.1-4.8-.2-4.4-.9.4-.6 0-.8-1-.4-1 .3-1.7.3-1.7-.1 0-.5-1.2-.8-2.7-.8-1.7.1-2.7-.4-2.5-1.2.1-.6-.7-1.2-1.9-1.2-1.1 0-1.7-.5-1.4-1 .4-.6.9-.8 1.3-.6.4.2 2.5.7 4.7 1 2.2.4 5.7 1.5 7.8 2.5 3 1.5 3.7 1.6 3.7.4 0-.7-.8-1.7-1.7-2-2.4-.9-4.3-2.9-3.6-3.7.4-.3-.4-.6-1.6-.6-1.2 0-3.1-.4-4.1-1-1.3-.7-2.2-.6-3.2.3zm97.6 41.2c-.4.8-.1 1.5.5 1.5s1.1.7 1.1 1.5c0 2-1.6 1.9-2.4-.1-.9-2.3-.7-4.4.4-4.4.5 0 .7.7.4 1.5zm-8.1 5.1c-.3.8-1.4 1.4-2.4 1.4-1.3 0-1.9.7-1.9 2.2-.1 2.2-.1 2.2-1.2.4-.8-1.5-.8-2.1 0-2.4.7-.2.9-.9.6-1.4-.4-.7-.2-.8.4-.4.7.4 2 .2 2.9-.3 1-.6 1.2-1.1.6-1.1-.7 0-1.3-.5-1.3-1.1 0-.8.4-.8 1.4.1.8.6 1.2 1.8.9 2.6zm4.7.8c-.5.5-.6 1.5-.3 2.2.3.8 0 1.4-.7 1.4-.6 0-.8.4-.5 1 .3.5 0 .7-.7.5-2-.8-2.2-5.5-.2-5.5 1 0 1.4-.6 1.1-1.4-.3-.8-.3-1.7.1-2.1 1-.9 2.1 2.9 1.2 3.9zm7.4-.9c.3.8.1 1.5-.4 1.5-.6 0-1-.7-1-1.5s.2-1.5.4-1.5.6.7 1 1.5zm-3 5c.3.8.1 1.5-.4 1.5-.6 0-1-.7-1-1.5s.2-1.5.4-1.5.6.7 1 1.5zm-19.9.4c.6 1.1-3.3 2.6-4.3 1.6-.4-.3 0-1 .8-1.5 1.9-1.2 2.7-1.2 3.5-.1zm16 2.1c-.3.5-1.2 1-1.8 1-.7 0-.6-.4.3-1 1.9-1.2 2.3-1.2 1.5 0zm-93.1 1.9c.9 1.4-4.5 2.4-5.8 1-.8-.8-.5-.9 1.3-.4 1.6.5 2.1.4 1.7-.4-.4-.6-.1-1.1.8-1.1.8 0 1.7.4 2 .9zm80.6.5c0 .3-.4.8-1 1.1-.5.3-1 .1-1-.4 0-.6.5-1.1 1-1.1.6 0 1 .2 1 .4zm-87.5 1.6c.3.5.2 1-.4 1-.5 0-1.3-.5-1.6-1-.3-.6-.2-1 .4-1 .5 0 1.3.4 1.6 1zm84.2-.4c-.3.3-1.2.4-1.9.1-.8-.3-.5-.6.6-.6 1.1-.1 1.7.2 1.3.5zM326 81.4c0 .2.8 1 1.8 1.7 1.5 1.3 1.6 1.2.3-.4s-2.1-2.1-2.1-1.3zM329.5 85.9c-.2.5.1 1.4.9 2 1 .9 1.5.8 1.9-.3.6-1.5-1.9-3.1-2.8-1.7z"/><path d="M368 85.8c0 .8-.5 1-1.2.6s.3 1 2.2 3.2c1.9 2.1 2.5 3 1.3 2-1.3-1.1-2.3-1.5-2.3-1.1 0 .5-.7 0-1.6-1.1-.8-1-1.2-1.2-.8-.4.6 1.2.5 1.3-.7.3-1.1-.9-2-.8-3.9.2-3.2 1.8-4.9 1.9-2.5.1 1.8-1.3 1.7-1.4-.8-1.4-1.5 0-2.4.4-2.1.9.3.5-.4.9-1.6.9-1.1 0-3.1 1.1-4.4 2.5-1.3 1.3-2.5 2.2-2.8 2-.2-.3-.5.2-.5 1s.8 1.5 1.8 1.5c1.2 0 1.6-.5 1.3-1.4-.3-.7.1-1.6.9-1.9 1.1-.4 1.3 0 1 1.4-.3 1 .1 2.7.8 3.6 1 1.2 1 1.4.2.9-.7-.4-1.3-.2-1.3.3 0 1.5 1.7 1.4 2.7-.2 1.1-1.8 8.9-5 10.5-4.4.7.3.3.6-.9.6-1.3.1-2.3.5-2.3 1s-.6 1.1-1.2 1.4c-.7.2-.5.3.5.2.9-.2 1.7.1 1.7.6s.6.9 1.3.9c1.3 0 4.3-4 3.9-5.3-.1-.4.3-.7.9-.7.5 0 .7-.5.3-1.2-.4-.6-.3-.8.3-.5 1.1.7 1 6.4-.2 9-.6 1.5-1 1.6-1.6.5-.7-1-.9-1-.9 0 0 3.2 4.9 2.2 9.4-1.9 1.1-1.1 3.2-2.5 4.8-3.1 3.1-1.4 3.7-2.8 1.2-2.8-.8 0-1.3-.4-1-.9.7-1-2.2-2.6-5.4-3-.5 0-1-.8-1-1.6s-.5-1.5-1.1-1.5c-.5 0-.7.6-.4 1.2.4.7-.1.4-.9-.6-.9-1.1-1.6-1.6-1.6-1 0 .5-.5.2-1-.6-.7-1.1-1-1.1-1-.2zm-8.5 7.2c-.3.5-1 1-1.6 1-.5 0-.9-.5-.9-1 0-.6.7-1 1.6-1 .8 0 1.2.4.9 1zm18.3 3.5c-.3.3-.9-.2-1.2-1.2-.6-1.4-.5-1.5.5-.6.7.7 1 1.5.7 1.8zm-3.4 0c-.4.8-1.1 1.2-1.6.9-.6-.4-.5-1 .3-1.5 1.9-1.2 1.9-1.1 1.3.6zM354 86.5c0 .8 3.8 1.1 5.5.5 1.5-.6 1-.8-1.7-.8-2.1 0-3.8.1-3.8.3zM321.4 94.8c.2.4-1.9.7-4.7.5-2.9-.1-4.6.1-3.8.4.7.3 2.2 1.4 3.2 2.4 2.3 2.3 4.3 2.5 3.5.4-.6-1.7 1.9-2.1 2.9-.5.3.5 1.5 1 2.6 1 1.9 0 1.9.1.5 1.6-1.8 1.7-2.1 2.8-.7 1.9.5-.3 1.2-.1 1.6.5.3.5 1.4 1 2.4 1s2.4.7 3.1 1.5c.7.8 1.7 1.5 2.3 1.5.6 0 .1-1-1.1-2.3-1.2-1.3-2.2-2.9-2.2-3.5 0-.7-1.2-1.8-2.7-2.5-1.6-.6-3.4-2-4.1-2.9-1.3-1.7-3.8-2.6-2.8-1zM330.5 95c-.3.5-.1 1 .4 1 .6 0 1.1-.5 1.1-1 0-.6-.2-1-.4-1-.3 0-.8.4-1.1 1zM302.4 96.2c.9.5 2.3.5 3.2 0 1.2-.6.7-.9-1.6-.9s-2.8.3-1.6.9z"/><path d="M335.5 96.3c-1.4 1.5-1.3 6.1 0 6.4.6.1.9-.5.7-1.3-.3-1.3 0-1.3 1.7-.2 2.4 1.5 2.7 2.4.9 3.1-.7.2 1 .7 3.7 1 2.8.4 6 1.4 7.2 2.2 2.2 1.5 8 1.5 13.1-.1 4.4-1.3 2.1-2-6.4-1.8-7.4.1-8.4-.1-6.9-1.2 1.6-1.2 1.6-1.3-.6-1.2-5.6.4-7.8-.2-7.3-1.7.4-.8.1-1.5-.5-1.5s-1.6-1.1-2.1-2.5c-1-2.7-2-3.1-3.5-1.2zM367.3 98.5c0 .8.4 1.5.9 1.5.4 0 .8-.4.8-.9 0-.6-.4-1.2-.8-1.5-.5-.3-.9.1-.9.9zM306.5 99.9c4.4 1.5 8.5 3.8 8 4.3-.3.3.1.8.9 1.1.9.4 1.5.1 1.3-.6-.3-1.6-7.7-5.6-10.2-5.6l-2 .1 2 .7z"/><path d="M344 99.9c0 .6.4 1.3 1 1.6.6.3.7-.1.4-.9-.7-1.8-1.4-2.1-1.4-.7zM355.5 100.8c-4.2.8-3.5 2 1.1 2 2.7 0 4.2-.3 3.4-.6-.8-.3-1.7-.8-2-1.1-.3-.4-1.4-.5-2.5-.3zM375.9 103.5c-.3.2-1.4.6-2.5.8-1 .1-2 .7-2.1 1.2-.3 1.8 3.1 2.2 6.2.9 2.4-1 2.6-1.3 1-1.4l-2-.1 2-.9c2-.8 2-.9-.1-.9-1.1-.1-2.3.1-2.5.4zM325.5 105.9c-.3.5-.1 1.2.5 1.6.5.3 1-.1 1-.9 0-1.8-.6-2.1-1.5-.7zM382 107c.8.5 2.2 1 3 1 1.3 0 1.3-.1 0-1-.8-.5-2.2-1-3-1-1.3 0-1.3.1 0 1zM388 109.5c1.4 1.7 7.1 4.7 7.8 4.1.4-.5-7.3-5.6-8.4-5.6-.4 0-.1.7.6 1.5zM374 109.4c0 .2.8 1 1.8 1.7 1.5 1.3 1.6 1.2.3-.4s-2.1-2.1-2.1-1.3zM381.6 109.8c-.4.3.7 1.1 2.4 1.8 3 1.3 4.4 4.1 1.4 3-.9-.3-1.2-.2-.8.5.3.6 1.7.8 3.1.4 1.4-.3 3-.1 3.7.4.6.5 1.8.6 2.5.2.9-.6.5-1-1.3-1.5-1.4-.3-2.6-1.1-2.6-1.6 0-.6-.9-1-1.9-1-1.1 0-2.1-.5-2.3-1.2-.4-1.2-3.3-2-4.2-1zM367 113.4c0 .2.7.7 1.6 1 .8.3 1.2.2.9-.4-.6-1-2.5-1.4-2.5-.6zM331.5 117.1c-.6 1.9 0 3.8.9 2.8 1-1.2 1.6-4.9.7-4.9-.5 0-1.3.9-1.6 2.1zM338.7 115.7c-1.3 1.3-.7 2.1 1.3 1.6 1.1-.3 1.7-.9 1.4-1.4-.6-1.1-1.8-1.2-2.7-.2zM342.6 117.4c-2.3 3.6-.4 4 2.9.6 2.7-2.8 2.7-3 .8-3-1.1 0-2.8 1.1-3.7 2.4zM355.4 115.7c.7.7 8.7.5 9.5-.3.2-.2-2-.4-4.9-.4-2.9 0-5 .3-4.6.7zM398.4 116.5c.8.8 1.8 1.5 2.2 1.5.3 0 .1-.7-.6-1.5s-1.7-1.5-2.2-1.5c-.5 0-.3.7.6 1.5zM371 119c1.3 2.4 1.7 2.5 1.7.5 0-.8-.6-1.6-1.4-1.9-1.1-.4-1.1-.1-.3 1.4zM362.8 118.7c.7.3 1.6.2 1.9-.1.4-.3-.2-.6-1.3-.5-1.1 0-1.4.3-.6.6zM285.4 127.6c-1.8 1.4-1.8 1.5.4.4 1.2-.6 2.2-1.3 2.2-1.5 0-.8-.5-.6-2.6 1.1zM354 126.4c0 .2.7.7 1.6 1 .8.3 1.2.2.9-.4-.6-1-2.5-1.4-2.5-.6zM332.5 130c-1.9.8-1.9.9.3.9 1.2.1 2.2-.4 2.2-.9 0-.6-.1-1-.2-.9-.2 0-1.2.4-2.3.9zM317.8 131.2c.5.5 1.6.8 2.3.6.8-.3.3-.7-1-1.1-1.7-.4-2.1-.3-1.3.5zM323.8 130.7c.7.3 1.6.2 1.9-.1.4-.3-.2-.6-1.3-.5-1.1 0-1.4.3-.6.6zM276.5 139.9c-.3.5-.2 1.2.3 1.5.5.3.9-.1.9-.9 0-1.7-.3-1.9-1.2-.6zM266 145.5c-1.1 1.3-1 1.4.4.9.9-.3 1.6-1 1.6-1.5 0-1.3-.6-1.1-2 .6zM346.5 157c-.3.6.1.7.9.4 1.8-.7 2.1-1.4.7-1.4-.6 0-1.3.4-1.6 1zM449 160c0 .5.5 1 1 1 .6 0 1-.5 1-1 0-.6-.4-1-1-1-.5 0-1 .4-1 1zM326.5 173.4c0 1.8.3 2.2 1.3 1.4.6-.6 1.2-1.7 1.2-2.4 0-.8-.6-1.4-1.2-1.4-.7 0-1.3 1.1-1.3 2.4zM295 184.1c0 1.6.4 2.8.9 2.5.5-.3.9-1.7.9-3.1 0-1.4-.4-2.5-.9-2.5s-.9 1.4-.9 3.1zM296 189.9c0 .5.5 1.3 1 1.6.6.3 1 .2 1-.4 0-.5-.4-1.3-1-1.6-.5-.3-1-.2-1 .4zM300.1 200.1c0 .8.6 2.4 1.4 3.5 1.3 1.7 1.4 1.7 1.5.1 0-.9-.4-1.7-.9-1.7s-1.2-.8-1.4-1.8c-.4-1.3-.5-1.4-.6-.1zM320.2 202.1c-.7 1.1-.8 1.9-.2 1.9.5 0 1-.5 1-1.1 0-.5.5-.7 1-.4.6.3 1 .2 1-.4 0-1.9-1.6-1.9-2.8 0zM323.6 208.8c-.3.5.1.9.9.9s1.2-.4.9-.9c-.3-.4-.7-.8-.9-.8-.2 0-.6.4-.9.8zM304.6 209.8c-.2.4 0 1.4.6 2.2.8 1.2.9 1.2.5-.2-.3-.9-.1-1.9.6-2.2.9-.3.9-.5 0-.5-.6-.1-1.4.3-1.7.7zM306.5 213.9c-.3.5-.2 1.2.3 1.5.5.3.9-.1.9-.9 0-1.7-.3-1.9-1.2-.6zM310.1 220.6c4.5 7.6 6.7 10 7.8 8.7.6-.7.8-1.1.4-.8-.8.6-4.3-2.5-4.3-3.9-.1-.6-1.5-2.7-3.2-4.6l-3.1-3.5 2.4 4.1zM318.3 223.2c0 1.3.1 1.7.4 1 .3-.6 1.2-1.2 2.1-1.2 1.5 0 1.5-.2.2-1-2.2-1.4-2.6-1.2-2.7 1.2zM320.1 233.9c-.8.5-.9 1.1-.3 1.5.5.3 1.2-.1 1.6-.9.6-1.7.6-1.8-1.3-.6zM341 260.5c0 1.5 1.8 4 2.4 3.4.3-.3-.1-1.4-.9-2.5-.8-1-1.4-1.5-1.5-.9zM567.5 847.2c-.3.7-.6 4.9-.7 9.3l-.3 8-3.3.3c-2 .2-3.2.8-2.9 1.5.5 1.6 5.1 2.1 7.7.7 1.8-1 2-2 2-11 0-6.2-.4-10-1-10s-1.3.6-1.5 1.2zM658.5 847.2c-.3.7-.6 4.9-.7 9.3l-.3 8-3.3.3c-2 .2-3.2.8-2.9 1.5.5 1.6 5.1 2.1 7.7.7 1.8-1 2-2 2-11 0-6.2-.4-10-1-10s-1.3.6-1.5 1.2zM576.3 852.8c-3.5 2.2-3.8 9.9-.6 13.4 2.1 2.3 8.6 2.4 10.4.1 1.3-1.5 1.1-1.6-2.3-.9-3.1.6-4.1.3-6-1.6l-2.3-2.3 5.8-.3c5.1-.3 5.7-.5 5.7-2.5 0-3.8-2.8-6.7-6.3-6.7-1.8 0-3.7.4-4.4.8zm6.5 2.4c2 2 1.4 2.8-2.3 2.8-2.4 0-3.5-.5-3.5-1.4 0-2.4 3.9-3.3 5.8-1.4zM589 860.2c0 6.3.3 7.8 1.5 7.8s1.5-1.3 1.5-6.1c0-5.8.1-6.1 3-7.2 4.3-1.6 3.7-2.5-1.5-2.5l-4.5.1v7.9zM599.6 854.2c-2.3 3.2-2 9.4.4 11.8 2.4 2.4 6.7 2.6 9.8.4 2.9-2 3.2-10.2.4-12.7-2.8-2.5-8.7-2.2-10.6.5zm8.2 1c.7.7 1.2 2.8 1.2 4.8 0 5.5-3.2 7.7-6.4 4.4-3-2.9-1.3-10.4 2.2-10.4 1 0 2.3.5 3 1.2zM617.3 852.8c-3.5 2.2-3.8 9.9-.6 13.4 2.1 2.3 8.6 2.4 10.4.1 1.3-1.5 1.1-1.6-2.3-.9-3.1.6-4.1.3-6-1.6l-2.3-2.3 5.8-.3c5.1-.3 5.7-.5 5.7-2.5 0-3.8-2.8-6.7-6.3-6.7-1.8 0-3.7.4-4.4.8zm6.5 2.4c2 2 1.4 2.8-2.3 2.8-2.4 0-3.5-.5-3.5-1.4 0-2.4 3.9-3.3 5.8-1.4zM630 860.1c0 6.4.3 7.9 1.5 7.9s1.5-1.4 1.5-6.5c0-6 .2-6.5 2.4-7.1 3.9-.9 4.6.2 4.6 7.2 0 5.1.3 6.4 1.5 6.4 1.3 0 1.5-1.3 1.3-7.8l-.3-7.7-6.2-.1-6.3-.1v7.8zM665 852.9c0 .6 1.5 1.1 3.3 1.3 2.4.2 3.3.8 3.5 2.5.3 2-.1 2.3-2.7 2.3-2.9 0-6.1 2.2-6.1 4.1 0 .6.5 1.9 1 3 .9 1.5 2 1.9 6 1.7l5-.2v-7.2c0-5.6-.3-7.3-1.6-7.8-2.4-.9-8.4-.7-8.4.3zm6.8 10.3c-.2 1.5-1 2.3-2.3 2.3-1.3 0-2.1-.8-2.3-2.3-.3-1.8.1-2.2 2.3-2.2 2.2 0 2.6.4 2.3 2.2zM678 860.1c0 6.4.3 7.9 1.5 7.9s1.5-1.4 1.5-6.5c0-6 .2-6.5 2.4-7.1 3.9-.9 4.6.2 4.6 7.2 0 5.1.3 6.4 1.5 6.4 1.3 0 1.5-1.3 1.3-7.8l-.3-7.7-6.2-.1-6.3-.1v7.8zM695.2 853.2c-.7.7-1.2 2.3-1.2 3.6 0 1.8.9 2.7 4 3.9 6 2.4 4.6 6.2-1.7 4.7-1.9-.5-2.4-.3-2.1.7 1.1 3.4 9.5 2.1 10.4-1.6.8-3.1-.8-5.2-4.7-6-4.3-1-3.5-4.1.9-3.9 2.1.1 3.2-.3 3.2-1.2 0-1.8-7.1-1.9-8.8-.2zM707.2 853.2c-.7.7-1.2 2.3-1.2 3.6 0 1.8.9 2.7 4 3.9 6 2.4 4.6 6.2-1.7 4.7-1.9-.5-2.4-.3-2.1.7 1.1 3.4 9.5 2.1 10.4-1.6.8-3.1-.8-5.2-4.7-6-4.3-1-3.5-4.1.9-3.9 2.1.1 3.2-.3 3.2-1.2 0-1.8-7.1-1.9-8.8-.2zM721.3 852.8c-3.5 2.2-3.8 9.9-.6 13.4 2.1 2.3 8.6 2.4 10.4.1 1.3-1.5 1.1-1.6-2.3-.9-3.1.6-4.1.3-6-1.6l-2.3-2.3 5.8-.3c5.1-.3 5.7-.5 5.7-2.5 0-3.8-2.8-6.7-6.3-6.7-1.8 0-3.7.4-4.4.8zm6.5 2.4c2 2 1.4 2.8-2.3 2.8-2.4 0-3.5-.5-3.5-1.4 0-2.4 3.9-3.3 5.8-1.4zM734 860.1c0 6.4.3 7.9 1.5 7.9s1.5-1.4 1.5-6.5c0-6 .2-6.5 2.4-7.1 3.9-.9 4.6.2 4.6 7.2 0 5.1.3 6.4 1.5 6.4 1.3 0 1.5-1.3 1.3-7.8l-.3-7.7-6.2-.1-6.3-.1v7.8zM749.8 854.4c-.9 2.2-.8 2.9.7 4.6 1 1.1 2.7 2 3.7 2 2.3 0 3.6 2.9 1.7 4.1-.8.5-2.7.6-4.3.3-2.1-.5-2.7-.3-2.4.7.6 1.8 7.5 2.4 9.4.8.8-.6 1.4-2.4 1.4-3.9 0-2.3-.7-3.1-4.1-4.4-4.7-1.9-4.7-4.1-.1-4.2 4.8 0 4.3-1.9-.5-2.2-3.8-.3-4.4 0-5.5 2.2z"/></svg>